<svg width="46" height="46" viewBox="0 0 46 46" fill="none" xmlns="http://www.w3.org/2000/svg">
<g clip-path="url(#clip0_1275_4100)">
<path d="M23 0.0742798C10.3177 0.0742798 0 10.392 0 23.0743C1.15629 53.545 44.8484 53.5367 46 23.074C46 10.3921 35.6823 0.0742798 23 0.0742798ZM38.75 37.2553C36.4915 35.1289 33.8315 33.4903 30.9125 32.4202C31.3417 29.7861 31.5864 26.9274 31.6276 23.9727H44.1843C43.9709 29.0677 41.951 33.7036 38.75 37.2553ZM1.81565 23.9727H14.3723C14.4136 26.9274 14.6583 29.7861 15.0874 32.4202C12.1683 33.4903 9.50852 35.1288 7.24994 37.2553C4.04899 33.7036 2.02912 29.0677 1.81565 23.9727ZM7.25003 8.89334C9.30224 10.8232 11.6639 12.3428 14.2775 13.414C14.5461 13.5241 14.816 13.6289 15.0874 13.7285C14.6582 16.3625 14.4135 19.2212 14.3723 22.1758H1.81565C2.02912 17.081 4.04899 12.445 7.25003 8.89334ZM23 31.0166C20.8938 31.0166 18.8227 31.3004 16.8148 31.8623C16.4418 29.4868 16.2096 26.836 16.1693 23.9728H29.8308C29.7905 26.836 29.5583 29.4868 29.1853 31.8623C27.1773 31.3003 25.1062 31.0166 23 31.0166ZM28.8715 33.6337C25.9919 47.586 20.0071 47.582 17.1285 33.6337C20.8803 32.5428 25.1196 32.5428 28.8715 33.6337ZM16.1692 22.1758C16.2095 19.3126 16.4417 16.662 16.8147 14.2863C20.8132 15.4131 25.1867 15.4131 29.1852 14.2863C29.5582 16.6619 29.7904 19.3126 29.8307 22.1758H16.1692ZM23 13.3352C20.9866 13.3352 19.0144 13.0556 17.1285 12.5149C20.0081 -1.43734 25.9929 -1.4333 28.8715 12.5149C26.9856 13.0556 25.0134 13.3352 23 13.3352ZM29.3131 7.23851C28.5517 5.07426 27.6451 3.37271 26.6377 2.18345C30.7935 2.9049 34.5382 4.8404 37.4918 7.61001C35.4628 9.51201 33.1208 10.9725 30.5862 11.9423C30.2412 10.2465 29.8149 8.6655 29.3131 7.23851ZM16.6869 7.23851C16.185 8.6655 15.7587 10.2465 15.4138 11.9423C12.8792 10.9725 10.5373 9.51201 8.5082 7.61001C11.4618 4.8404 15.2065 2.9049 19.3623 2.18336C18.3548 3.37271 17.4482 5.07426 16.6869 7.23851ZM15.4138 34.2064C16.0854 37.5816 17.4 41.6829 19.3623 43.9653C15.2065 43.2438 11.4618 41.3082 8.5082 38.5386C10.5372 36.6366 12.8792 35.1761 15.4138 34.2064ZM29.3131 38.9101C29.815 37.4832 30.2413 35.9022 30.5862 34.2064C33.1208 35.1761 35.4628 36.6366 37.4918 38.5387C34.5382 41.3083 30.7934 43.2438 26.6377 43.9653C27.6451 42.7759 28.5517 41.0744 29.3131 38.9101ZM31.6276 22.1758C31.5863 19.2212 31.3416 16.3625 30.9125 13.7285C33.8316 12.6583 36.4914 11.0198 38.75 8.89334C41.9509 12.445 43.9709 17.081 44.1843 22.1758H31.6276Z" fill="#31572C"/>
<path fill-rule="evenodd" clip-rule="evenodd" d="M8.625 15.8868H37.3751L34.5599 23.0743L37.3751 30.2618H8.625L11.4402 23.0743L8.625 15.8868Z" fill="#F1C832"/>
<path d="M15.97 27.1C15.4033 27.1 14.9166 27.0033 14.51 26.81C14.11 26.6167 13.7466 26.3267 13.42 25.94L14.32 25.04C14.5266 25.3133 14.7666 25.5267 15.04 25.68C15.3133 25.8267 15.6466 25.9 16.04 25.9C16.3933 25.9 16.6733 25.83 16.88 25.69C17.0933 25.55 17.2 25.3567 17.2 25.11C17.2 24.8967 17.14 24.7233 17.02 24.59C16.9 24.4567 16.74 24.3433 16.54 24.25C16.3466 24.1567 16.13 24.0733 15.89 24C15.6566 23.92 15.42 23.83 15.18 23.73C14.9466 23.63 14.73 23.5067 14.53 23.36C14.3366 23.2067 14.18 23.0133 14.06 22.78C13.94 22.54 13.88 22.24 13.88 21.88C13.88 21.4533 13.9833 21.09 14.19 20.79C14.3966 20.49 14.68 20.26 15.04 20.1C15.4 19.94 15.8066 19.86 16.26 19.86C16.74 19.86 17.1733 19.95 17.56 20.13C17.9466 20.31 18.2633 20.5433 18.51 20.83L17.61 21.73C17.4033 21.5033 17.19 21.3367 16.97 21.23C16.7566 21.1233 16.5133 21.07 16.24 21.07C15.9266 21.07 15.68 21.13 15.5 21.25C15.32 21.37 15.23 21.5433 15.23 21.77C15.23 21.9633 15.29 22.12 15.41 22.24C15.53 22.36 15.6866 22.4633 15.88 22.55C16.08 22.6367 16.2966 22.72 16.53 22.8C16.77 22.88 17.0066 22.97 17.24 23.07C17.48 23.17 17.6966 23.3 17.89 23.46C18.09 23.62 18.25 23.8267 18.37 24.08C18.49 24.3267 18.55 24.6333 18.55 25C18.55 25.6533 18.32 26.1667 17.86 26.54C17.4 26.9133 16.77 27.1 15.97 27.1ZM19.6233 27V19.97H20.9833V27H19.6233ZM20.6233 27V25.8H24.5133V27H20.6233ZM20.6233 23.99V22.83H24.1633V23.99H20.6233ZM20.6233 21.17V19.97H24.4633V21.17H20.6233ZM28.802 27.11C28.2887 27.11 27.8087 27.0167 27.362 26.83C26.922 26.6433 26.5353 26.3867 26.202 26.06C25.8753 25.7267 25.6187 25.34 25.432 24.9C25.2453 24.4533 25.152 23.9767 25.152 23.47C25.152 22.9633 25.242 22.4933 25.422 22.06C25.6087 21.62 25.8653 21.2367 26.192 20.91C26.5253 20.5767 26.912 20.32 27.352 20.14C27.792 19.9533 28.2687 19.86 28.782 19.86C29.302 19.86 29.782 19.9533 30.222 20.14C30.662 20.32 31.0453 20.5767 31.372 20.91C31.7053 21.2367 31.9653 21.62 32.152 22.06C32.3387 22.5 32.432 22.9733 32.432 23.48C32.432 23.9867 32.3387 24.46 32.152 24.9C31.9653 25.34 31.7053 25.7267 31.372 26.06C31.0453 26.3867 30.662 26.6433 30.222 26.83C29.7887 27.0167 29.3153 27.11 28.802 27.11ZM28.782 25.84C29.2353 25.84 29.6287 25.74 29.962 25.54C30.2953 25.34 30.5553 25.0633 30.742 24.71C30.9353 24.3567 31.032 23.9433 31.032 23.47C31.032 23.1233 30.9787 22.8067 30.872 22.52C30.7653 22.2333 30.612 21.9867 30.412 21.78C30.212 21.5667 29.9753 21.4033 29.702 21.29C29.4287 21.1767 29.122 21.12 28.782 21.12C28.342 21.12 27.952 21.22 27.612 21.42C27.2787 21.6133 27.0153 21.8867 26.822 22.24C26.6353 22.5933 26.542 23.0033 26.542 23.47C26.542 23.8233 26.5953 24.1467 26.702 24.44C26.8153 24.7333 26.9687 24.9833 27.162 25.19C27.362 25.3967 27.5987 25.5567 27.872 25.67C28.152 25.7833 28.4553 25.84 28.782 25.84Z" fill="#31572C"/>
</g>
<defs>
<clipPath id="clip0_1275_4100">
<rect width="46" height="46" fill="white"/>
</clipPath>
</defs>
</svg>
