<svg width="46" height="46" viewBox="0 0 46 46" fill="none" xmlns="http://www.w3.org/2000/svg">
<g clip-path="url(#clip0_1275_4133)">
<path d="M39.772 11.8672H33.1553C32.6592 11.8672 32.2568 12.2694 32.2568 12.7656V29.1067C32.301 30.2975 34.01 30.2966 34.0537 29.1067V13.6641H38.8735V29.1067C38.9177 30.2975 40.6266 30.2966 40.6703 29.1067V12.7656C40.6704 12.2695 40.2681 11.8672 39.772 11.8672Z" fill="#31572C"/>
<path d="M29.0195 19.2416H22.4029C21.9068 19.2416 21.5045 19.6438 21.5045 20.14V33.9902H19.1659V12.7656C19.1659 12.2694 18.7636 11.8672 18.2675 11.8672H11.6508C11.1546 11.8672 10.7523 12.2694 10.7523 12.7656V33.9902H8.4136V20.14C8.4136 19.6438 8.01128 19.2416 7.51516 19.2416H0.898438C0.40232 19.2416 0 19.6438 0 20.14V34.8887C0 35.3849 0.40232 35.7871 0.898438 35.7871H22.3937C22.9656 35.7949 23.4056 35.235 23.2682 34.6818C23.2897 34.6047 23.3013 34.5234 23.3013 34.4394V21.0384H28.1211V27.7317C28.1653 28.9225 29.8742 28.9216 29.918 27.7317V20.14C29.918 19.6438 29.5156 19.2416 29.0195 19.2416ZM6.61672 33.9902H1.79688V21.0384H6.61672V33.9902ZM12.5491 13.6641H17.369V33.9902H12.5491V13.6641Z" fill="#31572C"/>
<path d="M4.20799 12.0546C4.37734 12.0546 4.54858 12.0068 4.7006 11.9068L14.9592 5.16333L25.2179 11.9068C25.5175 12.1037 25.9054 12.1037 26.205 11.9068L35.1446 6.03041L34.7788 7.79962C34.5774 8.96884 36.2546 9.32292 36.5384 8.16348L37.3434 4.27019C37.3917 4.03687 37.3453 3.79384 37.2143 3.59475C37.0834 3.39566 36.8789 3.25667 36.6454 3.20842L32.7521 2.40342C32.267 2.30342 31.7909 2.61536 31.6904 3.10133C31.5899 3.58729 31.9023 4.06265 32.3884 4.1631L34.1576 4.52894L25.7114 10.081L15.4527 3.33744C15.1532 3.14059 14.7653 3.14059 14.4657 3.33744L3.71358 10.4053C3.29895 10.6778 3.18386 11.2349 3.45635 11.6496C3.62894 11.9121 3.91554 12.0546 4.20799 12.0546Z" fill="#31572C"/>
<path fill-rule="evenodd" clip-rule="evenodd" d="M23.3377 27.7402H44.1666C45.175 27.7402 46 28.5654 46 29.5736V41.785C46 42.7933 45.1749 43.6183 44.1666 43.6183H23.3377C22.3294 43.6183 21.5044 42.7933 21.5044 41.785V29.5736C21.5044 28.5652 22.3293 27.7402 23.3377 27.7402Z" fill="#F1C832"/>
<path d="M28.1026 38.9629V38.0749H29.5666C29.8279 38.0749 30.0306 37.9949 30.1746 37.8349C30.3239 37.6749 30.3986 37.4856 30.3986 37.2669C30.3986 37.1176 30.3666 36.9816 30.3026 36.8589C30.2386 36.7362 30.1426 36.6402 30.0146 36.5709C29.8919 36.4962 29.7426 36.4589 29.5666 36.4589H28.1026V35.5789H29.4466C29.6706 35.5789 29.8492 35.5229 29.9826 35.4109C30.1212 35.2989 30.1906 35.1309 30.1906 34.9069C30.1906 34.6776 30.1212 34.5069 29.9826 34.3949C29.8492 34.2829 29.6706 34.2269 29.4466 34.2269H28.1026V33.3389H29.5746C29.9479 33.3389 30.2599 33.4082 30.5106 33.5469C30.7666 33.6802 30.9586 33.8589 31.0866 34.0829C31.2146 34.3016 31.2786 34.5416 31.2786 34.8029C31.2786 35.1229 31.1799 35.4002 30.9826 35.6349C30.7906 35.8642 30.5079 36.0349 30.1346 36.1469L30.1826 35.7949C30.5986 35.9122 30.9186 36.1069 31.1426 36.3789C31.3719 36.6456 31.4866 36.9682 31.4866 37.3469C31.4866 37.6456 31.4119 37.9176 31.2626 38.1629C31.1186 38.4029 30.9052 38.5976 30.6226 38.7469C30.3452 38.8909 30.0066 38.9629 29.6066 38.9629H28.1026ZM27.3026 38.9629V33.3389H28.3826V38.9629H27.3026ZM33.8721 39.0429C33.4187 39.0429 33.0294 38.9656 32.7041 38.8109C32.3841 38.6562 32.0934 38.4242 31.8321 38.1149L32.5521 37.3949C32.7174 37.6136 32.9094 37.7842 33.1281 37.9069C33.3467 38.0242 33.6134 38.0829 33.9281 38.0829C34.2107 38.0829 34.4347 38.0269 34.6001 37.9149C34.7707 37.8029 34.8561 37.6482 34.8561 37.4509C34.8561 37.2802 34.8081 37.1416 34.7121 37.0349C34.6161 36.9282 34.4881 36.8376 34.3281 36.7629C34.1734 36.6882 34.0001 36.6216 33.8081 36.5629C33.6214 36.4989 33.4321 36.4269 33.2401 36.3469C33.0534 36.2669 32.8801 36.1682 32.7201 36.0509C32.5654 35.9282 32.4401 35.7736 32.3441 35.5869C32.2481 35.3949 32.2001 35.1549 32.2001 34.8669C32.2001 34.5256 32.2827 34.2349 32.4481 33.9949C32.6134 33.7549 32.8401 33.5709 33.1281 33.4429C33.4161 33.3149 33.7414 33.2509 34.1041 33.2509C34.4881 33.2509 34.8347 33.3229 35.1441 33.4669C35.4534 33.6109 35.7067 33.7976 35.9041 34.0269L35.1841 34.7469C35.0187 34.5656 34.8481 34.4322 34.6721 34.3469C34.5014 34.2616 34.3067 34.2189 34.0881 34.2189C33.8374 34.2189 33.6401 34.2669 33.4961 34.3629C33.3521 34.4589 33.2801 34.5976 33.2801 34.7789C33.2801 34.9336 33.3281 35.0589 33.4241 35.1549C33.5201 35.2509 33.6454 35.3336 33.8001 35.4029C33.9601 35.4722 34.1334 35.5389 34.3201 35.6029C34.5121 35.6669 34.7014 35.7389 34.8881 35.8189C35.0801 35.8989 35.2534 36.0029 35.4081 36.1309C35.5681 36.2589 35.6961 36.4242 35.7921 36.6269C35.8881 36.8242 35.9361 37.0696 35.9361 37.3629C35.9361 37.8856 35.7521 38.2962 35.3841 38.5949C35.0161 38.8936 34.5121 39.0429 33.8721 39.0429ZM38.2861 39.0429C37.8328 39.0429 37.4435 38.9656 37.1181 38.8109C36.7981 38.6562 36.5075 38.4242 36.2461 38.1149L36.9661 37.3949C37.1315 37.6136 37.3235 37.7842 37.5421 37.9069C37.7608 38.0242 38.0275 38.0829 38.3421 38.0829C38.6248 38.0829 38.8488 38.0269 39.0141 37.9149C39.1848 37.8029 39.2701 37.6482 39.2701 37.4509C39.2701 37.2802 39.2221 37.1416 39.1261 37.0349C39.0301 36.9282 38.9021 36.8376 38.7421 36.7629C38.5875 36.6882 38.4141 36.6216 38.2221 36.5629C38.0355 36.4989 37.8461 36.4269 37.6541 36.3469C37.4675 36.2669 37.2941 36.1682 37.1341 36.0509C36.9795 35.9282 36.8541 35.7736 36.7581 35.5869C36.6621 35.3949 36.6141 35.1549 36.6141 34.8669C36.6141 34.5256 36.6968 34.2349 36.8621 33.9949C37.0275 33.7549 37.2541 33.5709 37.5421 33.4429C37.8301 33.3149 38.1555 33.2509 38.5181 33.2509C38.9021 33.2509 39.2488 33.3229 39.5581 33.4669C39.8675 33.6109 40.1208 33.7976 40.3181 34.0269L39.5981 34.7469C39.4328 34.5656 39.2621 34.4322 39.0861 34.3469C38.9155 34.2616 38.7208 34.2189 38.5021 34.2189C38.2515 34.2189 38.0541 34.2669 37.9101 34.3629C37.7661 34.4589 37.6941 34.5976 37.6941 34.7789C37.6941 34.9336 37.7421 35.0589 37.8381 35.1549C37.9341 35.2509 38.0595 35.3336 38.2141 35.4029C38.3741 35.4722 38.5475 35.5389 38.7341 35.6029C38.9261 35.6669 39.1155 35.7389 39.3021 35.8189C39.4941 35.8989 39.6675 36.0029 39.8221 36.1309C39.9821 36.2589 40.1101 36.4242 40.2061 36.6269C40.3021 36.8242 40.3501 37.0696 40.3501 37.3629C40.3501 37.8856 40.1661 38.2962 39.7981 38.5949C39.4301 38.8936 38.9261 39.0429 38.2861 39.0429Z" fill="#31572C"/>
</g>
<defs>
<clipPath id="clip0_1275_4133">
<rect width="46" height="46" fill="white"/>
</clipPath>
</defs>
</svg>
