<svg width="46" height="46" viewBox="0 0 46 46" fill="none" xmlns="http://www.w3.org/2000/svg">
<g clip-path="url(#clip0_1275_4113)">
<path d="M45.1016 39.2618H44.203V10.5119C44.203 9.0257 42.9939 7.81659 41.5077 7.81659H34.6796C33.4888 7.86079 33.4897 9.56962 34.6796 9.61346H41.5077C42.0031 9.61346 42.4062 10.0165 42.4062 10.5119V39.2618H28.3906C27.8945 39.2618 27.4921 39.6641 27.4921 40.1602H18.5078C18.5078 39.6641 18.1055 39.2618 17.6093 39.2618H3.59374V10.5119C3.59374 10.0165 3.99678 9.61346 4.49218 9.61346H11.3203C12.5111 9.56926 12.5102 7.86043 11.3203 7.81659H4.49218C3.00599 7.81659 1.79687 9.0257 1.79687 10.5119V39.2618H0.898436C0.40232 39.2618 0 39.6641 0 40.1602V42.8555C0 44.3417 1.20903 45.5508 2.69522 45.5508H43.3047C44.7909 45.5508 46 44.3417 46 42.8555V40.1602C46 39.6641 45.5977 39.2618 45.1016 39.2618ZM44.2031 42.8555C44.2031 43.3509 43.8001 43.7539 43.3047 43.7539H2.69522C2.19982 43.7539 1.79687 43.3509 1.79687 42.8555V41.0586H16.952C17.2633 41.5954 17.8441 41.9571 18.5078 41.9571H27.4921C28.1559 41.9571 28.7367 41.5954 29.0479 41.0586H44.2031V42.8555Z" fill="#31572C"/>
<path fill-rule="evenodd" clip-rule="evenodd" d="M10.4219 2.24609V36.5664H35.5782V2.24609L33.0626 0.449219L30.547 2.24609L28.0313 0.449219L25.5156 2.24609L23.0001 0.449219L20.4844 2.24609L17.9688 0.449219L15.4531 2.24609L12.9375 0.449219L10.4219 2.24609Z" fill="#F1C832"/>
<path d="M17.3547 12V6.496H18.4507V12H17.3547ZM15.5627 7.344V6.376H20.2427V7.344H15.5627ZM20.994 12V6.376H22.082V12H20.994ZM21.794 12V11.04H24.906V12H21.794ZM21.794 9.592V8.664H24.626V9.592H21.794ZM21.794 7.336V6.376H24.866V7.336H21.794ZM28.3129 12.08C27.9022 12.08 27.5209 12.008 27.1689 11.864C26.8169 11.7147 26.5076 11.5093 26.2409 11.248C25.9796 10.9813 25.7769 10.672 25.6329 10.32C25.4942 9.968 25.4249 9.58933 25.4249 9.184C25.4249 8.77867 25.4942 8.4 25.6329 8.048C25.7769 7.696 25.9796 7.38933 26.2409 7.128C26.5076 6.86667 26.8142 6.66133 27.1609 6.512C27.5129 6.36267 27.8969 6.288 28.3129 6.288C28.7609 6.288 29.1556 6.36267 29.4969 6.512C29.8382 6.656 30.1396 6.856 30.4009 7.112L29.6649 7.848C29.5102 7.67733 29.3209 7.544 29.0969 7.448C28.8729 7.352 28.6116 7.304 28.3129 7.304C28.0516 7.304 27.8116 7.34933 27.5929 7.44C27.3796 7.52533 27.1929 7.65333 27.0329 7.824C26.8729 7.98933 26.7502 8.18933 26.6649 8.424C26.5796 8.65333 26.5369 8.90667 26.5369 9.184C26.5369 9.46667 26.5796 9.72267 26.6649 9.952C26.7502 10.1813 26.8729 10.3813 27.0329 10.552C27.1929 10.7173 27.3796 10.8453 27.5929 10.936C27.8116 11.0267 28.0516 11.072 28.3129 11.072C28.6276 11.072 28.8969 11.024 29.1209 10.928C29.3502 10.832 29.5422 10.696 29.6969 10.52L30.4329 11.256C30.1716 11.5173 29.8676 11.72 29.5209 11.864C29.1742 12.008 28.7716 12.08 28.3129 12.08Z" fill="#081120"/>
<path d="M42.7433 35.6679H3.25652C2.06574 35.7121 2.06663 37.4209 3.25652 37.4648H42.7433C43.9341 37.4206 43.9332 35.7118 42.7433 35.6679Z" fill="#31572C"/>
<path d="M15.3126 19.4961H30.687C31.8778 19.4519 31.8769 17.743 30.687 17.6992H15.3126C14.1219 17.7435 14.1228 19.4523 15.3126 19.4961Z" fill="#31572C"/>
<path d="M15.3126 23.0898H30.687C31.8778 23.0456 31.8769 21.3368 30.687 21.2929H15.3126C14.1219 21.3372 14.1228 23.0461 15.3126 23.0898Z" fill="#31572C"/>
<path d="M15.3126 26.6836H22.9998C24.1906 26.6394 24.1897 24.9305 22.9998 24.8867H15.3126C14.1219 24.931 14.1228 26.6398 15.3126 26.6836Z" fill="#31572C"/>
<path d="M15.3126 30.2773H30.687C31.8778 30.2331 31.8769 28.5243 30.687 28.4804H15.3126C14.1219 28.5247 14.1228 30.2335 15.3126 30.2773Z" fill="#31572C"/>
<path d="M15.3126 33.871H30.687C31.8778 33.8268 31.8769 32.118 30.687 32.0742H15.3126C14.1219 32.1185 14.1228 33.8273 15.3126 33.871Z" fill="#31572C"/>
</g>
<defs>
<clipPath id="clip0_1275_4113">
<rect width="46" height="46" fill="white"/>
</clipPath>
</defs>
</svg>
