<svg width="52" height="52" viewBox="0 0 52 52" fill="none" xmlns="http://www.w3.org/2000/svg">
<g clip-path="url(#clip0_1275_4380)">
<path d="M26 0.0839844C11.6635 0.0839844 0 11.7475 0 26.084C1.30711 60.5291 50.6982 60.5198 52 26.0837C52 11.7476 40.3365 0.0839844 26 0.0839844ZM43.8043 42.1147C41.2512 39.7109 38.2443 37.8586 34.9446 36.6489C35.4298 33.6713 35.7063 30.4397 35.7529 27.0996H49.9474C49.7062 32.8591 47.4229 38.0997 43.8043 42.1147ZM2.05248 27.0996H16.247C16.2937 30.4397 16.5702 33.6713 17.0553 36.6489C13.7555 37.8586 10.7488 39.7108 8.19559 42.1147C4.57712 38.0997 2.29379 32.8591 2.05248 27.0996ZM8.19569 10.0534C10.5156 12.2349 13.1852 13.9527 16.1398 15.1637C16.4434 15.2881 16.7486 15.4066 17.0553 15.5191C16.5701 18.4968 16.2936 21.7284 16.247 25.0684H2.05248C2.29379 19.309 4.57712 14.0683 8.19569 10.0534ZM26 35.0622C23.6191 35.0622 21.2779 35.383 19.008 36.0183C18.5863 33.3329 18.3239 30.3364 18.2783 27.0997H33.7218C33.6762 30.3364 33.4138 33.3329 32.9921 36.0183C30.7221 35.3829 28.3809 35.0622 26 35.0622ZM32.6373 38.0207C29.3821 53.7929 22.6167 53.7884 19.3627 38.0207C23.6038 36.7876 28.3961 36.7876 32.6373 38.0207ZM18.2782 25.0684C18.3238 21.8317 18.5862 18.8353 19.0079 16.1497C23.528 17.4235 28.4719 17.4235 32.992 16.1497C33.4137 18.8352 33.6761 21.8317 33.7217 25.0684H18.2782ZM26 15.0746C23.724 15.0746 21.4946 14.7585 19.3627 14.1473C22.6179 -1.62481 29.3832 -1.62024 32.6373 14.1473C30.5054 14.7585 28.276 15.0746 26 15.0746ZM33.1365 8.18268C32.2759 5.73614 31.251 3.81265 30.1122 2.46827C34.81 3.28381 39.0432 5.47177 42.382 8.60264C40.0883 10.7527 37.4409 12.4037 34.5757 13.5C34.1857 11.583 33.7038 9.7958 33.1365 8.18268ZM18.8635 8.18268C18.2961 9.7958 17.8142 11.583 17.4243 13.5C14.5591 12.4037 11.9118 10.7527 9.61797 8.60264C12.9568 5.47177 17.19 3.28381 21.8878 2.46816C20.7489 3.81265 19.724 5.73614 18.8635 8.18268ZM17.4243 38.6681C18.1834 42.4836 19.6695 47.1198 21.8878 49.6999C17.19 48.8844 12.9568 46.6963 9.61797 43.5654C11.9117 41.4154 14.5591 39.7644 17.4243 38.6681ZM33.1365 43.9854C33.7039 42.3723 34.1858 40.5851 34.5757 38.6681C37.4409 39.7644 40.0883 41.4154 42.382 43.5655C39.0432 46.6964 34.8099 48.8844 30.1122 49.6999C31.251 48.3554 32.2759 46.4319 33.1365 43.9854ZM35.7529 25.0684C35.7062 21.7283 35.4297 18.4968 34.9446 15.5191C38.2444 14.3094 41.2511 12.4571 43.8043 10.0534C47.4228 14.0683 49.7062 19.309 49.9474 25.0684H35.7529Z" fill="#31572C"/>
<path fill-rule="evenodd" clip-rule="evenodd" d="M9.75 17.959H42.2501L39.0677 26.084L42.2501 34.209H9.75L12.9324 26.084L9.75 17.959Z" fill="#F1C832"/>
<path d="M18.97 30.1C18.4033 30.1 17.9166 30.0033 17.51 29.81C17.11 29.6167 16.7466 29.3267 16.42 28.94L17.32 28.04C17.5266 28.3133 17.7666 28.5267 18.04 28.68C18.3133 28.8267 18.6466 28.9 19.04 28.9C19.3933 28.9 19.6733 28.83 19.88 28.69C20.0933 28.55 20.2 28.3567 20.2 28.11C20.2 27.8967 20.14 27.7233 20.02 27.59C19.9 27.4567 19.74 27.3433 19.54 27.25C19.3466 27.1567 19.13 27.0733 18.89 27C18.6566 26.92 18.42 26.83 18.18 26.73C17.9466 26.63 17.73 26.5067 17.53 26.36C17.3366 26.2067 17.18 26.0133 17.06 25.78C16.94 25.54 16.88 25.24 16.88 24.88C16.88 24.4533 16.9833 24.09 17.19 23.79C17.3966 23.49 17.68 23.26 18.04 23.1C18.4 22.94 18.8066 22.86 19.26 22.86C19.74 22.86 20.1733 22.95 20.56 23.13C20.9466 23.31 21.2633 23.5433 21.51 23.83L20.61 24.73C20.4033 24.5033 20.19 24.3367 19.97 24.23C19.7566 24.1233 19.5133 24.07 19.24 24.07C18.9266 24.07 18.68 24.13 18.5 24.25C18.32 24.37 18.23 24.5433 18.23 24.77C18.23 24.9633 18.29 25.12 18.41 25.24C18.53 25.36 18.6866 25.4633 18.88 25.55C19.08 25.6367 19.2966 25.72 19.53 25.8C19.77 25.88 20.0066 25.97 20.24 26.07C20.48 26.17 20.6966 26.3 20.89 26.46C21.09 26.62 21.25 26.8267 21.37 27.08C21.49 27.3267 21.55 27.6333 21.55 28C21.55 28.6533 21.32 29.1667 20.86 29.54C20.4 29.9133 19.77 30.1 18.97 30.1ZM22.6233 30V22.97H23.9833V30H22.6233ZM23.6233 30V28.8H27.5133V30H23.6233ZM23.6233 26.99V25.83H27.1633V26.99H23.6233ZM23.6233 24.17V22.97H27.4633V24.17H23.6233ZM31.802 30.11C31.2887 30.11 30.8087 30.0167 30.362 29.83C29.922 29.6433 29.5353 29.3867 29.202 29.06C28.8753 28.7267 28.6187 28.34 28.432 27.9C28.2453 27.4533 28.152 26.9767 28.152 26.47C28.152 25.9633 28.242 25.4933 28.422 25.06C28.6087 24.62 28.8653 24.2367 29.192 23.91C29.5253 23.5767 29.912 23.32 30.352 23.14C30.792 22.9533 31.2687 22.86 31.782 22.86C32.302 22.86 32.782 22.9533 33.222 23.14C33.662 23.32 34.0453 23.5767 34.372 23.91C34.7053 24.2367 34.9653 24.62 35.152 25.06C35.3387 25.5 35.432 25.9733 35.432 26.48C35.432 26.9867 35.3387 27.46 35.152 27.9C34.9653 28.34 34.7053 28.7267 34.372 29.06C34.0453 29.3867 33.662 29.6433 33.222 29.83C32.7887 30.0167 32.3153 30.11 31.802 30.11ZM31.782 28.84C32.2353 28.84 32.6287 28.74 32.962 28.54C33.2953 28.34 33.5553 28.0633 33.742 27.71C33.9353 27.3567 34.032 26.9433 34.032 26.47C34.032 26.1233 33.9787 25.8067 33.872 25.52C33.7653 25.2333 33.612 24.9867 33.412 24.78C33.212 24.5667 32.9753 24.4033 32.702 24.29C32.4287 24.1767 32.122 24.12 31.782 24.12C31.342 24.12 30.952 24.22 30.612 24.42C30.2787 24.6133 30.0153 24.8867 29.822 25.24C29.6353 25.5933 29.542 26.0033 29.542 26.47C29.542 26.8233 29.5953 27.1467 29.702 27.44C29.8153 27.7333 29.9687 27.9833 30.162 28.19C30.362 28.3967 30.5987 28.5567 30.872 28.67C31.152 28.7833 31.4553 28.84 31.782 28.84Z" fill="#31572C"/>
</g>
<defs>
<clipPath id="clip0_1275_4380">
<rect width="52" height="52" fill="white"/>
</clipPath>
</defs>
</svg>
