<svg width="52" height="52" viewBox="0 0 52 52" fill="none" xmlns="http://www.w3.org/2000/svg">
<g clip-path="url(#clip0_1275_4356)">
<path fill-rule="evenodd" clip-rule="evenodd" d="M27.9756 31.5636L35.0982 36.9489L35.1673 36.909L37.2734 35.3166V14.4221C35.0298 14.4221 33.2109 12.6032 33.2109 10.3596H24.0703C24.0703 12.6032 22.2514 14.4221 20.0078 14.4221V34.6003L24.0242 31.5636C24.6163 31.1165 25.3111 30.901 25.9999 30.9016C26.6888 30.901 27.3835 31.1165 27.9756 31.5636Z" fill="#F1C832"/>
<path d="M45.4388 21.6609L42.3515 19.5299V6.29705C42.3515 5.73623 41.8967 5.28143 41.3359 5.28143H37.0701V1.01562C37.0701 0.454795 36.6153 0 36.0545 0H10.6639C10.1031 0 9.64832 0.454795 9.64832 1.01562V19.5299L6.56103 21.6609C4.99312 22.7431 4.67188 23.9982 4.67188 25.5497V48.5866C4.67188 50.4687 6.20313 51.9999 8.08517 51.9999H43.9146C45.7966 51.9999 47.3279 50.4687 47.3279 48.5866V25.5497C47.328 23.9982 47.0067 22.7432 45.4388 21.6609ZM45.2967 30.5235V43.3864L36.7904 36.9549L45.2967 30.5235ZM44.285 23.3325C45.1439 23.9254 45.2967 24.4289 45.2967 25.5497V27.977L42.3515 30.2039V21.9979L44.285 23.3325ZM40.3203 31.7396L35.1064 35.6817L28.5876 30.753C27.8363 30.1857 26.9426 29.8859 26.0045 29.8859H25.9969C25.0572 29.8859 24.1634 30.1857 23.4116 30.7534L16.9609 35.6307V7.31267H40.3202V31.7396H40.3203ZM6.70312 30.5235L15.2095 36.955L6.70312 43.3865V30.5235ZM35.0388 2.03124V5.28143H15.9454C15.3845 5.28143 14.9297 5.73623 14.9297 6.29705V34.1971L11.6796 31.7396V2.03124H35.0388ZM7.71488 23.3325L9.64832 21.998V30.2038L6.70312 27.9769V25.5497C6.70312 24.4289 6.85597 23.9254 7.71488 23.3325ZM43.9147 49.9688H8.08517C7.32305 49.9688 6.70312 49.3488 6.70312 48.5867V45.9331L24.6362 32.374C25.0321 32.0751 25.5026 31.9171 25.9988 31.9171H26.0028C26.4971 31.9171 26.9677 32.0751 27.3631 32.3736L45.2967 45.933V48.5867C45.2967 49.3487 44.6767 49.9688 43.9147 49.9688Z" fill="#31572C"/>
<path d="M24.0707 26.6101H24.5426C24.8204 27.1625 25.2898 27.6218 25.9045 27.8764C26.2376 28.0143 26.5832 28.0797 26.9231 28.0797C27.9715 28.0796 28.9683 27.4583 29.3939 26.431L29.7648 25.5355C29.8294 25.3794 29.9526 25.2572 30.1115 25.1913C30.2703 25.1256 30.4438 25.1247 30.6003 25.1894C30.9204 25.3221 31.0789 25.7046 30.9464 26.0247L30.7608 26.4725C30.5461 26.9906 30.7921 27.5848 31.3103 27.7995C31.8287 28.0143 32.4226 27.7682 32.6373 27.25L32.823 26.802C32.8493 26.7385 32.8729 26.6745 32.894 26.6101H33.2113C34.5574 26.5601 34.5564 24.6284 33.2113 24.5788H32.7395C32.4616 24.0264 31.9923 23.5673 31.3776 23.3127C30.0171 22.7492 28.4517 23.3975 27.8882 24.758L27.5173 25.6536C27.3847 25.9738 27.0022 26.132 26.6819 25.9995C26.3617 25.8669 26.2032 25.4844 26.3357 25.1643L26.5213 24.7165C26.736 24.1983 26.49 23.6041 25.9718 23.3894C25.4537 23.1748 24.8595 23.4208 24.6448 23.9389L24.4592 24.3869C24.4329 24.4504 24.4092 24.5145 24.3882 24.5787H24.0709C22.7246 24.6288 22.7256 26.5605 24.0707 26.6101Z" fill="#31572C"/>
<path d="M28.6406 19.9447C29.2015 19.9447 29.6562 19.49 29.6562 18.9291V16.8979C29.6063 15.5518 27.6746 15.5528 27.625 16.8979V18.9291C27.625 19.49 28.0797 19.9447 28.6406 19.9447Z" fill="#31572C"/>
</g>
<defs>
<clipPath id="clip0_1275_4356">
<rect width="52" height="52" fill="white"/>
</clipPath>
</defs>
</svg>
