<svg width="52" height="52" viewBox="0 0 52 52" fill="none" xmlns="http://www.w3.org/2000/svg">
<g clip-path="url(#clip0_1275_4415)">
<path d="M50.9844 44.3829H49.9687V11.8831C49.9687 10.203 48.6018 8.83618 46.9218 8.83618H39.203C37.8569 8.88615 37.858 10.8179 39.203 10.8674H46.9218C47.4818 10.8674 47.9374 11.323 47.9374 11.8831V44.3829H32.0937C31.5329 44.3829 31.0781 44.8377 31.0781 45.3985H20.9218C20.9218 44.8377 20.467 44.3829 19.9062 44.3829H4.06249V11.8831C4.06249 11.323 4.5181 10.8674 5.07811 10.8674H12.7968C14.143 10.8175 14.1419 8.88574 12.7968 8.83618H5.07811C3.39807 8.83618 2.03125 10.203 2.03125 11.8831V44.3829H1.01562C0.454796 44.3829 0 44.8377 0 45.3985V48.4454C0 50.1254 1.36672 51.4922 3.04677 51.4922H48.9531C50.6332 51.4922 52 50.1254 52 48.4454V45.3985C52 44.8377 51.5452 44.3829 50.9844 44.3829ZM49.9688 48.4454C49.9688 49.0054 49.5131 49.461 48.9531 49.461H3.04677C2.48675 49.461 2.03125 49.0054 2.03125 48.4454V46.4141H19.1632C19.515 47.0209 20.1716 47.4298 20.9218 47.4298H31.0781C31.8284 47.4298 32.485 47.0209 32.8367 46.4141H49.9688V48.4454Z" fill="#31572C"/>
<path fill-rule="evenodd" clip-rule="evenodd" d="M11.7812 2.53906V41.3359H40.2189V2.53906L37.3751 0.507812L34.5314 2.53906L31.6876 0.507812L28.8438 2.53906L26.0001 0.507812L23.1562 2.53906L20.3125 0.507812L17.4688 2.53906L14.625 0.507812L11.7812 2.53906Z" fill="#F1C832"/>
<path d="M18.9434 14V7.12H20.3134V14H18.9434ZM16.7034 8.18V6.97H22.5534V8.18H16.7034ZM23.4925 14V6.97H24.8525V14H23.4925ZM24.4925 14V12.8H28.3825V14H24.4925ZM24.4925 10.99V9.83H28.0325V10.99H24.4925ZM24.4925 8.17V6.97H28.3325V8.17H24.4925ZM32.6411 14.1C32.1278 14.1 31.6511 14.01 31.2111 13.83C30.7711 13.6433 30.3845 13.3867 30.0511 13.06C29.7245 12.7267 29.4711 12.34 29.2911 11.9C29.1178 11.46 29.0311 10.9867 29.0311 10.48C29.0311 9.97333 29.1178 9.5 29.2911 9.06C29.4711 8.62 29.7245 8.23667 30.0511 7.91C30.3845 7.58333 30.7678 7.32667 31.2011 7.14C31.6411 6.95333 32.1211 6.86 32.6411 6.86C33.2011 6.86 33.6945 6.95333 34.1211 7.14C34.5478 7.32 34.9245 7.57 35.2511 7.89L34.3311 8.81C34.1378 8.59667 33.9011 8.43 33.6211 8.31C33.3411 8.19 33.0145 8.13 32.6411 8.13C32.3145 8.13 32.0145 8.18667 31.7411 8.3C31.4745 8.40667 31.2411 8.56667 31.0411 8.78C30.8411 8.98667 30.6878 9.23667 30.5811 9.53C30.4745 9.81667 30.4211 10.1333 30.4211 10.48C30.4211 10.8333 30.4745 11.1533 30.5811 11.44C30.6878 11.7267 30.8411 11.9767 31.0411 12.19C31.2411 12.3967 31.4745 12.5567 31.7411 12.67C32.0145 12.7833 32.3145 12.84 32.6411 12.84C33.0345 12.84 33.3711 12.78 33.6511 12.66C33.9378 12.54 34.1778 12.37 34.3711 12.15L35.2911 13.07C34.9645 13.3967 34.5845 13.65 34.1511 13.83C33.7178 14.01 33.2145 14.1 32.6411 14.1Z" fill="#081120"/>
<path d="M48.3188 40.3203H3.68156C2.33546 40.3703 2.33647 42.302 3.68156 42.3516H48.3188C49.6649 42.3016 49.6639 40.3699 48.3188 40.3203Z" fill="#31572C"/>
<path d="M17.3104 22.0391H34.6902C36.0363 21.9891 36.0353 20.0574 34.6902 20.0078H17.3104C15.9644 20.0579 15.9654 21.9896 17.3104 22.0391Z" fill="#31572C"/>
<path d="M17.3104 26.1016H34.6902C36.0363 26.0516 36.0353 24.1199 34.6902 24.0703H17.3104C15.9644 24.1204 15.9654 26.0521 17.3104 26.1016Z" fill="#31572C"/>
<path d="M17.3104 30.1641H26.0003C27.3464 30.1141 27.3454 28.1824 26.0003 28.1328H17.3104C15.9644 28.1829 15.9654 30.1146 17.3104 30.1641Z" fill="#31572C"/>
<path d="M17.3104 34.2266H34.6902C36.0363 34.1766 36.0353 32.2449 34.6902 32.1953H17.3104C15.9644 32.2454 15.9654 34.1771 17.3104 34.2266Z" fill="#31572C"/>
<path d="M17.3104 38.2891H34.6902C36.0363 38.2391 36.0353 36.3074 34.6902 36.2578H17.3104C15.9644 36.3079 15.9654 38.2396 17.3104 38.2891Z" fill="#31572C"/>
</g>
<defs>
<clipPath id="clip0_1275_4415">
<rect width="52" height="52" fill="white"/>
</clipPath>
</defs>
</svg>
