<svg width="45" height="44" viewBox="0 0 45 44" fill="none" xmlns="http://www.w3.org/2000/svg">
<g clip-path="url(#clip0_1275_665)">
<path d="M43.6406 37.5548H42.7812V10.0549C42.7812 8.63335 41.6246 7.47681 40.203 7.47681H33.6718C32.5328 7.51909 32.5337 9.15362 33.6718 9.19555H40.203C40.6769 9.19555 41.0624 9.58107 41.0624 10.0549V37.5548H27.6562C27.1817 37.5548 26.7968 37.9396 26.7968 38.4142H18.2031C18.2031 37.9396 17.8183 37.5548 17.3437 37.5548H3.93749V10.0549C3.93749 9.58107 4.32301 9.19555 4.79687 9.19555H11.3281C12.4671 9.15327 12.4663 7.51874 11.3281 7.47681H4.79687C3.37529 7.47681 2.21875 8.63335 2.21875 10.0549V37.5548H1.35937C0.884827 37.5548 0.5 37.9396 0.5 38.4142V40.9923C0.5 42.4139 1.65646 43.5704 3.07803 43.5704H41.9219C43.3435 43.5704 44.5 42.4139 44.5 40.9923V38.4142C44.5 37.9396 44.1152 37.5548 43.6406 37.5548ZM42.7813 40.9923C42.7813 41.4661 42.3957 41.8517 41.9219 41.8517H3.07803C2.60418 41.8517 2.21875 41.4661 2.21875 40.9923V39.2735H16.715C17.0127 39.7869 17.5683 40.1329 18.2031 40.1329H26.7968C27.4317 40.1329 27.9873 39.7869 28.2849 39.2735H42.7813V40.9923Z" fill="#FA6444"/>
<path fill-rule="evenodd" clip-rule="evenodd" d="M10.4688 2.14844V34.9766H34.5313V2.14844L32.1251 0.429688L29.7188 2.14844L27.3126 0.429688L24.9063 2.14844L22.5001 0.429688L20.0938 2.14844L17.6875 0.429688L15.2813 2.14844L12.875 0.429688L10.4688 2.14844Z" fill="#FA6444"/>
<path d="M17.3938 11.2305V5.72647H18.4898V11.2305H17.3938ZM15.6018 6.57447V5.60647H20.2818V6.57447H15.6018ZM21.033 11.2305V5.60647H22.121V11.2305H21.033ZM21.833 11.2305V10.2705H24.945V11.2305H21.833ZM21.833 8.82247V7.89447H24.665V8.82247H21.833ZM21.833 6.56647V5.60647H24.905V6.56647H21.833ZM28.352 11.3105C27.9413 11.3105 27.56 11.2385 27.208 11.0945C26.856 10.9451 26.5466 10.7398 26.28 10.4785C26.0186 10.2118 25.816 9.90247 25.672 9.55047C25.5333 9.19847 25.464 8.8198 25.464 8.41447C25.464 8.00914 25.5333 7.63047 25.672 7.27847C25.816 6.92647 26.0186 6.6198 26.28 6.35847C26.5466 6.09714 26.8533 5.8918 27.2 5.74247C27.552 5.59314 27.936 5.51847 28.352 5.51847C28.8 5.51847 29.1946 5.59314 29.536 5.74247C29.8773 5.88647 30.1786 6.08647 30.44 6.34247L29.704 7.07847C29.5493 6.9078 29.36 6.77447 29.136 6.67847C28.912 6.58247 28.6506 6.53447 28.352 6.53447C28.0906 6.53447 27.8506 6.5798 27.632 6.67047C27.4186 6.7558 27.232 6.8838 27.072 7.05447C26.912 7.2198 26.7893 7.4198 26.704 7.65447C26.6186 7.8838 26.576 8.13714 26.576 8.41447C26.576 8.69714 26.6186 8.95314 26.704 9.18247C26.7893 9.4118 26.912 9.6118 27.072 9.78247C27.232 9.9478 27.4186 10.0758 27.632 10.1665C27.8506 10.2571 28.0906 10.3025 28.352 10.3025C28.6666 10.3025 28.936 10.2545 29.16 10.1585C29.3893 10.0625 29.5813 9.92647 29.736 9.75047L30.472 10.4865C30.2106 10.7478 29.9066 10.9505 29.56 11.0945C29.2133 11.2385 28.8106 11.3105 28.352 11.3105Z" fill="white"/>
<path d="M41.3856 34.1172H3.61566C2.47664 34.1595 2.4775 35.794 3.61566 35.8359H41.3856C42.5246 35.7937 42.5238 34.1591 41.3856 34.1172Z" fill="#FA6444"/>
<path d="M15.1468 18.6484H29.8528C30.9918 18.6062 30.991 16.9716 29.8528 16.9297H15.1468C14.0079 16.9721 14.0088 18.6066 15.1468 18.6484Z" fill="white"/>
<path d="M15.1468 22.0859H29.8528C30.9918 22.0437 30.991 20.4091 29.8528 20.3672H15.1468C14.0079 20.4096 14.0088 22.0441 15.1468 22.0859Z" fill="white"/>
<path d="M15.1468 25.5234H22.4998C23.6388 25.4812 23.638 23.8466 22.4998 23.8047H15.1468C14.0079 23.8471 14.0088 25.4816 15.1468 25.5234Z" fill="white"/>
<path d="M15.1468 28.9609H29.8528C30.9918 28.9187 30.991 27.2841 29.8528 27.2422H15.1468C14.0079 27.2846 14.0088 28.9191 15.1468 28.9609Z" fill="white"/>
<path d="M15.1468 32.3984H29.8528C30.9918 32.3562 30.991 30.7216 29.8528 30.6797H15.1468C14.0079 30.7221 14.0088 32.3566 15.1468 32.3984Z" fill="white"/>
</g>
<defs>
<clipPath id="clip0_1275_665">
<rect width="44" height="44" fill="white" transform="translate(0.5)"/>
</clipPath>
</defs>
</svg>
