<svg width="45" height="44" viewBox="0 0 45 44" fill="none" xmlns="http://www.w3.org/2000/svg">
<g clip-path="url(#clip0_1275_599)">
<path fill-rule="evenodd" clip-rule="evenodd" d="M24.1716 26.7077L30.1985 31.2645L30.2569 31.2307L32.039 29.8833V12.2034C30.1406 12.2034 28.6015 10.6643 28.6015 8.76587H20.8672C20.8672 10.6643 19.3281 12.2034 17.4297 12.2034V29.2772L20.8282 26.7077C21.3292 26.3294 21.9171 26.147 22.4999 26.1475C23.0828 26.147 23.6706 26.3294 24.1716 26.7077Z" fill="#FA6444"/>
<path d="M38.9482 18.3284L36.3359 16.5253V5.32828C36.3359 4.85373 35.9511 4.4689 35.4765 4.4689H31.867V0.859372C31.867 0.384827 31.4822 0 31.0076 0H9.52333C9.04879 0 8.66396 0.384827 8.66396 0.859372V16.5253L6.05164 18.3284C4.72494 19.2442 4.45312 20.3062 4.45312 21.619V41.1117C4.45312 42.7043 5.7488 43.9999 7.3413 43.9999H37.6585C39.251 43.9999 40.5466 42.7043 40.5466 41.1117V21.619C40.5467 20.3062 40.2749 19.2443 38.9482 18.3284ZM38.828 25.8276V36.7116L31.6303 31.2695L38.828 25.8276ZM37.9719 19.7429C38.6987 20.2446 38.828 20.6706 38.828 21.619V23.6729L36.3359 25.5571V18.6136L37.9719 19.7429ZM34.6172 26.8566L30.2054 30.1922L24.6895 26.0218C24.0538 25.5417 23.2976 25.288 22.5038 25.288H22.4974C21.7023 25.288 20.9459 25.5417 20.3098 26.0221L14.8515 30.1491V6.18765H34.6171V26.8566H34.6172ZM6.17187 25.8276L13.3695 31.2696L6.17187 36.7117V25.8276ZM30.1483 1.71874V4.4689H13.9922C13.5177 4.4689 13.1329 4.85373 13.1329 5.32828V28.936L10.3827 26.8566V1.71874H30.1483ZM7.02797 19.7429L8.66396 18.6137V25.557L6.17187 23.6728V21.619C6.17187 20.6706 6.3012 20.2446 7.02797 19.7429ZM37.6586 42.2813H7.3413C6.69643 42.2813 6.17187 41.7567 6.17187 41.1118V38.8665L21.3461 27.3934C21.681 27.1405 22.0791 27.0068 22.499 27.0068H22.5023C22.9206 27.0068 23.3188 27.1405 23.6534 27.3931L38.828 38.8664V41.1118C38.828 41.7566 38.3033 42.2813 37.6586 42.2813Z" fill="#FA6444"/>
<path d="M20.8676 22.5168H21.2669C21.502 22.9843 21.8991 23.3729 22.4193 23.5883C22.7012 23.705 22.9935 23.7604 23.2811 23.7604C24.1683 23.7603 25.0118 23.2346 25.3718 22.3653L25.6857 21.6075C25.7403 21.4754 25.8446 21.3721 25.9791 21.3163C26.1134 21.2607 26.2603 21.26 26.3926 21.3147C26.6635 21.427 26.7976 21.7506 26.6855 22.0215L26.5285 22.4004C26.3468 22.8388 26.5549 23.3416 26.9934 23.5232C27.432 23.705 27.9346 23.4968 28.1162 23.0583L28.2733 22.6793C28.2956 22.6255 28.3156 22.5713 28.3335 22.5168H28.602C29.741 22.4746 29.7401 20.84 28.602 20.7981H28.2027C27.9676 20.3307 27.5705 19.9421 27.0504 19.7267C25.8991 19.2499 24.5746 19.7985 24.0978 20.9497L23.784 21.7075C23.6717 21.9784 23.3481 22.1123 23.077 22.0002C22.8062 21.8879 22.672 21.5643 22.7842 21.2934L22.9412 20.9145C23.1228 20.4761 22.9147 19.9733 22.4763 19.7917C22.0378 19.6101 21.5351 19.8182 21.3534 20.2566L21.1963 20.6357C21.174 20.6894 21.154 20.7436 21.1362 20.798H20.8678C19.7286 20.8404 19.7294 22.4749 20.8676 22.5168Z" fill="white"/>
<path d="M24.7344 16.8754C25.2089 16.8754 25.5938 16.4906 25.5938 16.016V14.2973C25.5515 13.1583 23.9169 13.1591 23.875 14.2973V16.016C23.875 16.4906 24.2597 16.8754 24.7344 16.8754Z" fill="white"/>
</g>
<defs>
<clipPath id="clip0_1275_599">
<rect width="44" height="44" fill="white" transform="translate(0.5)"/>
</clipPath>
</defs>
</svg>
