<svg width="44" height="44" viewBox="0 0 44 44" fill="none" xmlns="http://www.w3.org/2000/svg">
<g clip-path="url(#clip0_1275_2549)">
<path d="M35.4881 16.6799L18.4489 2.48041C18.1303 2.21486 17.6673 2.21486 17.3485 2.48041L0.30926 16.6799C-0.0551149 16.9835 -0.104615 17.525 0.198659 17.8896L2.71104 20.9106C2.85688 21.0859 3.06648 21.1961 3.29353 21.2168C3.51989 21.238 3.74659 21.1673 3.9219 21.0213L4.76366 20.3198V37.3549H0.859346C-0.27967 37.3972 -0.27881 39.0317 0.859346 39.0736H29.7639C30.9029 39.0313 30.9021 37.3968 29.7639 37.3549H23.1423V22.4311C23.1423 21.9566 22.7574 21.5718 22.2829 21.5718H13.5145C13.04 21.5718 12.6551 21.9566 12.6551 22.4311V37.3548H6.48241V18.8875L17.8988 9.37397L29.3151 18.8877V27.3224C29.3574 28.4615 30.992 28.4606 31.0339 27.3224V20.32L31.8755 21.0213C32.0505 21.1674 32.2784 21.2379 32.5039 21.2168C32.731 21.1961 32.9405 21.086 33.0863 20.9107L35.5987 17.8897C35.9021 17.525 35.8526 16.9835 35.4881 16.6799ZM14.3739 31.1821H15.2681C16.4072 31.1398 16.4063 29.5053 15.2681 29.4633H14.3739V23.2905H21.4235V37.3548H14.3739V31.1821ZM32.315 19.1501L18.4489 7.59507C18.1302 7.32952 17.6673 7.32952 17.3485 7.59507L3.4825 19.1501L2.06909 17.4507L17.8988 4.2594L33.7284 17.4507L32.315 19.1501Z" fill="#141339"/>
<path fill-rule="evenodd" clip-rule="evenodd" d="M35.2322 41.7225C40.0617 41.7225 44.0006 37.7836 44.0006 32.9542C43.5521 21.3392 26.9107 21.3424 26.4639 32.9543C26.4639 37.7837 30.4028 41.7225 35.2322 41.7225Z" fill="#F6AA32"/>
<path fill-rule="evenodd" clip-rule="evenodd" d="M17.8991 18.6177C19.1065 18.6177 20.0912 17.6329 20.0912 16.4256C19.9791 13.5218 15.8187 13.5226 15.707 16.4256C15.707 17.6329 16.6918 18.6177 17.8991 18.6177Z" fill="#F6AA32"/>
<path d="M37.853 28.4121C37.4419 28.1749 36.9164 28.3156 36.6791 28.7267L32.2949 36.3204C31.7605 37.3221 33.1777 38.147 33.7833 37.1797L38.1675 29.5861C38.4049 29.175 38.264 28.6494 37.853 28.4121Z" fill="#141339"/>
<path d="M33.0397 30.0159C34.1787 29.9736 34.1779 28.3391 33.0397 28.2971H33.039C31.9 28.3396 31.9017 29.9741 33.0397 30.0159Z" fill="#141339"/>
<path d="M37.4233 35.8906H37.4227C36.9482 35.8906 36.5636 36.2755 36.5636 36.75C36.6059 37.8885 38.2407 37.8886 38.2827 36.75C38.2827 36.2755 37.8978 35.8906 37.4233 35.8906Z" fill="#141339"/>
</g>
<defs>
<clipPath id="clip0_1275_2549">
<rect width="44" height="44" fill="white"/>
</clipPath>
</defs>
</svg>
