<svg width="45" height="44" viewBox="0 0 45 44" fill="none" xmlns="http://www.w3.org/2000/svg">
<g clip-path="url(#clip0_1275_641)">
<path d="M38.5439 11.3516H32.2148C31.7403 11.3516 31.3555 11.7363 31.3555 12.2109V27.8415C31.3978 28.9805 33.0324 28.9797 33.0742 27.8415V13.0703H37.6844V27.8415C37.7267 28.9805 39.3613 28.9797 39.4032 27.8415V12.2109C39.4033 11.7364 39.0184 11.3516 38.5439 11.3516Z" fill="#FA6444"/>
<path d="M28.2578 18.4053H21.9289C21.4543 18.4053 21.0695 18.7901 21.0695 19.2647V32.5127H18.8326V12.2109C18.8326 11.7363 18.4478 11.3516 17.9732 11.3516H11.6442C11.1697 11.3516 10.7848 11.7363 10.7848 12.2109V32.5127H8.54779V19.2647C8.54779 18.7901 8.16296 18.4053 7.68841 18.4053H1.35938C0.884828 18.4053 0.5 18.7901 0.5 19.2647V33.3721C0.5 33.8467 0.884828 34.2315 1.35938 34.2315H21.9201C22.4671 34.239 22.888 33.7034 22.7565 33.1742C22.7771 33.1005 22.7882 33.0227 22.7882 32.9423V20.1241H27.3984V26.5263C27.4407 27.6653 29.0753 27.6645 29.1172 26.5263V19.2647C29.1172 18.7901 28.7324 18.4053 28.2578 18.4053ZM6.82904 32.5127H2.21875V20.1241H6.82904V32.5127ZM12.5035 13.0703H17.1138V32.5127H12.5035V13.0703Z" fill="#FA6444"/>
<path d="M4.52435 11.5307C4.68634 11.5307 4.85014 11.485 4.99555 11.3893L14.8081 4.93901L24.6208 11.3893C24.9074 11.5776 25.2784 11.5776 25.5649 11.3893L34.1159 5.76839L33.766 7.46067C33.5734 8.57906 35.1777 8.91774 35.4491 7.80872L36.2191 4.0847C36.2653 3.86152 36.2209 3.62906 36.0956 3.43863C35.9704 3.24819 35.7747 3.11524 35.5515 3.06909L31.8274 2.29909C31.3634 2.20345 30.908 2.50182 30.8119 2.96666C30.7158 3.43149 31.0146 3.88619 31.4795 3.98227L33.1718 4.3322L25.0928 9.64288L15.2802 3.1925C14.9937 3.00421 14.6226 3.00421 14.3361 3.1925L4.05144 9.95303C3.65484 10.2138 3.54475 10.7466 3.8054 11.1433C3.97048 11.3944 4.24462 11.5307 4.52435 11.5307Z" fill="#FA6444"/>
<path fill-rule="evenodd" clip-rule="evenodd" d="M22.824 26.5332H42.7472C43.7118 26.5332 44.5009 27.3225 44.5009 28.2868V39.9673C44.5009 40.9318 43.7117 41.7209 42.7472 41.7209H22.824C21.8595 41.7209 21.0703 40.9318 21.0703 39.9673V28.2868C21.0703 27.3223 21.8594 26.5332 22.824 26.5332Z" fill="#FA6444"/>
<path d="M27.4854 37.6152V36.7272H28.9494C29.2107 36.7272 29.4134 36.6472 29.5574 36.4872C29.7067 36.3272 29.7814 36.1379 29.7814 35.9192C29.7814 35.7699 29.7494 35.6339 29.6854 35.5112C29.6214 35.3886 29.5254 35.2926 29.3974 35.2232C29.2747 35.1486 29.1254 35.1112 28.9494 35.1112H27.4854V34.2312H28.8294C29.0534 34.2312 29.232 34.1752 29.3654 34.0632C29.504 33.9512 29.5734 33.7832 29.5734 33.5592C29.5734 33.3299 29.504 33.1592 29.3654 33.0472C29.232 32.9352 29.0534 32.8792 28.8294 32.8792H27.4854V31.9912H28.9574C29.3307 31.9912 29.6427 32.0606 29.8934 32.1992C30.1494 32.3326 30.3414 32.5112 30.4694 32.7352C30.5974 32.9539 30.6614 33.1939 30.6614 33.4552C30.6614 33.7752 30.5627 34.0526 30.3654 34.2872C30.1734 34.5166 29.8907 34.6872 29.5174 34.7992L29.5654 34.4472C29.9814 34.5646 30.3014 34.7592 30.5254 35.0312C30.7547 35.2979 30.8694 35.6206 30.8694 35.9992C30.8694 36.2979 30.7947 36.5699 30.6454 36.8152C30.5014 37.0552 30.288 37.2499 30.0054 37.3992C29.728 37.5432 29.3894 37.6152 28.9894 37.6152H27.4854ZM26.6854 37.6152V31.9912H27.7654V37.6152H26.6854ZM33.2549 37.6952C32.8015 37.6952 32.4122 37.6179 32.0869 37.4632C31.7669 37.3086 31.4762 37.0766 31.2149 36.7672L31.9349 36.0472C32.1002 36.2659 32.2922 36.4366 32.5109 36.5592C32.7295 36.6766 32.9962 36.7352 33.3109 36.7352C33.5935 36.7352 33.8175 36.6792 33.9829 36.5672C34.1535 36.4552 34.2389 36.3006 34.2389 36.1032C34.2389 35.9326 34.1909 35.7939 34.0949 35.6872C33.9989 35.5806 33.8709 35.4899 33.7109 35.4152C33.5562 35.3406 33.3829 35.2739 33.1909 35.2152C33.0042 35.1512 32.8149 35.0792 32.6229 34.9992C32.4362 34.9192 32.2629 34.8206 32.1029 34.7032C31.9482 34.5806 31.8229 34.4259 31.7269 34.2392C31.6309 34.0472 31.5829 33.8072 31.5829 33.5192C31.5829 33.1779 31.6655 32.8872 31.8309 32.6472C31.9962 32.4072 32.2229 32.2232 32.5109 32.0952C32.7989 31.9672 33.1242 31.9032 33.4869 31.9032C33.8709 31.9032 34.2175 31.9752 34.5269 32.1192C34.8362 32.2632 35.0895 32.4499 35.2869 32.6792L34.5669 33.3992C34.4015 33.2179 34.2309 33.0846 34.0549 32.9992C33.8842 32.9139 33.6895 32.8712 33.4709 32.8712C33.2202 32.8712 33.0229 32.9192 32.8789 33.0152C32.7349 33.1112 32.6629 33.2499 32.6629 33.4312C32.6629 33.5859 32.7109 33.7112 32.8069 33.8072C32.9029 33.9032 33.0282 33.9859 33.1829 34.0552C33.3429 34.1246 33.5162 34.1912 33.7029 34.2552C33.8949 34.3192 34.0842 34.3912 34.2709 34.4712C34.4629 34.5512 34.6362 34.6552 34.7909 34.7832C34.9509 34.9112 35.0789 35.0766 35.1749 35.2792C35.2709 35.4766 35.3189 35.7219 35.3189 36.0152C35.3189 36.5379 35.1349 36.9486 34.7669 37.2472C34.3989 37.5459 33.8949 37.6952 33.2549 37.6952ZM37.6689 37.6952C37.2156 37.6952 36.8263 37.6179 36.5009 37.4632C36.1809 37.3086 35.8903 37.0766 35.6289 36.7672L36.3489 36.0472C36.5143 36.2659 36.7063 36.4366 36.9249 36.5592C37.1436 36.6766 37.4103 36.7352 37.7249 36.7352C38.0076 36.7352 38.2316 36.6792 38.3969 36.5672C38.5676 36.4552 38.6529 36.3006 38.6529 36.1032C38.6529 35.9326 38.6049 35.7939 38.5089 35.6872C38.4129 35.5806 38.2849 35.4899 38.1249 35.4152C37.9703 35.3406 37.7969 35.2739 37.6049 35.2152C37.4183 35.1512 37.2289 35.0792 37.0369 34.9992C36.8503 34.9192 36.6769 34.8206 36.5169 34.7032C36.3623 34.5806 36.2369 34.4259 36.1409 34.2392C36.0449 34.0472 35.9969 33.8072 35.9969 33.5192C35.9969 33.1779 36.0796 32.8872 36.2449 32.6472C36.4103 32.4072 36.6369 32.2232 36.9249 32.0952C37.2129 31.9672 37.5383 31.9032 37.9009 31.9032C38.2849 31.9032 38.6316 31.9752 38.9409 32.1192C39.2503 32.2632 39.5036 32.4499 39.7009 32.6792L38.9809 33.3992C38.8156 33.2179 38.6449 33.0846 38.4689 32.9992C38.2983 32.9139 38.1036 32.8712 37.8849 32.8712C37.6343 32.8712 37.4369 32.9192 37.2929 33.0152C37.1489 33.1112 37.0769 33.2499 37.0769 33.4312C37.0769 33.5859 37.1249 33.7112 37.2209 33.8072C37.3169 33.9032 37.4423 33.9859 37.5969 34.0552C37.7569 34.1246 37.9303 34.1912 38.1169 34.2552C38.3089 34.3192 38.4983 34.3912 38.6849 34.4712C38.8769 34.5512 39.0503 34.6552 39.2049 34.7832C39.3649 34.9112 39.4929 35.0766 39.5889 35.2792C39.6849 35.4766 39.7329 35.7219 39.7329 36.0152C39.7329 36.5379 39.5489 36.9486 39.1809 37.2472C38.8129 37.5459 38.3089 37.6952 37.6689 37.6952Z" fill="white"/>
</g>
<defs>
<clipPath id="clip0_1275_641">
<rect width="44" height="44" fill="white" transform="translate(0.5)"/>
</clipPath>
</defs>
</svg>
