<svg width="52" height="52" viewBox="0 0 52 52" fill="none" xmlns="http://www.w3.org/2000/svg">
<g clip-path="url(#clip0_1275_4459)">
<path d="M41.9405 19.7119L21.8033 2.93068C21.4267 2.61686 20.8796 2.61686 20.5028 2.93068L0.365489 19.7119C-0.0651358 20.0707 -0.123636 20.7106 0.234778 21.1416L3.20396 24.7118C3.37631 24.919 3.62402 25.0492 3.89235 25.0736C4.15986 25.0987 4.42779 25.0151 4.63497 24.8426L5.62978 24.0136V44.146H1.01559C-0.330519 44.1959 -0.329503 46.1276 1.01559 46.1772H35.1755C36.5216 46.1272 36.5206 44.1955 35.1755 44.146H27.3499V26.5088C27.3499 25.948 26.8951 25.4932 26.3343 25.4932H15.9717C15.4109 25.4932 14.9561 25.948 14.9561 26.5088V44.1459H7.66103V22.3209L21.1531 11.0776L34.6452 22.3211V32.2895C34.6951 33.6356 36.6269 33.6345 36.6764 32.2895V24.0138L37.671 24.8427C37.8779 25.0153 38.1471 25.0986 38.4136 25.0737C38.6821 25.0493 38.9297 24.9191 39.102 24.7119L42.0712 21.1417C42.4297 20.7106 42.3712 20.0707 41.9405 19.7119ZM16.9873 36.8508H18.0442C19.3903 36.8009 19.3893 34.8691 18.0442 34.8196H16.9873V27.5244H25.3187V44.1459H16.9873V36.8508ZM38.1904 22.6313L21.8033 8.97528C21.4266 8.66145 20.8795 8.66145 20.5028 8.97528L4.11568 22.6313L2.44529 20.6229L21.1531 5.03313L39.8608 20.6229L38.1904 22.6313Z" fill="#31572C"/>
<path fill-rule="evenodd" clip-rule="evenodd" d="M41.6373 49.3069C47.3448 49.3069 51.9999 44.6518 51.9999 38.9443C51.4699 25.2175 31.8027 25.2213 31.2747 38.9444C31.2747 44.6519 35.9298 49.3069 41.6373 49.3069Z" fill="#F1C832"/>
<path fill-rule="evenodd" clip-rule="evenodd" d="M21.1529 22.002C22.5798 22.002 23.7436 20.8382 23.7436 19.4113C23.611 15.9796 18.6942 15.9805 18.5623 19.4113C18.5623 20.8382 19.7261 22.002 21.1529 22.002Z" fill="#F1C832"/>
<path d="M44.7359 33.5776C44.25 33.2972 43.6289 33.4636 43.3485 33.9494L38.1672 42.9237C37.5356 44.1076 39.2106 45.0824 39.9263 43.9393L45.1076 34.965C45.3881 34.4792 45.2216 33.858 44.7359 33.5776Z" fill="#31572C"/>
<path d="M39.0474 35.4729C40.3935 35.4229 40.3925 33.4912 39.0474 33.4417H39.0466C37.7005 33.4918 37.7024 35.4235 39.0474 35.4729Z" fill="#31572C"/>
<path d="M44.2279 42.4158H44.2272C43.6664 42.4158 43.2119 42.8706 43.2119 43.4314C43.2619 44.7769 45.1939 44.777 45.2436 43.4314C45.2436 42.8706 44.7888 42.4158 44.2279 42.4158Z" fill="#31572C"/>
</g>
<defs>
<clipPath id="clip0_1275_4459">
<rect width="52" height="52" fill="white"/>
</clipPath>
</defs>
</svg>
