<svg width="44" height="44" viewBox="0 0 44 44" fill="none" xmlns="http://www.w3.org/2000/svg">
<g clip-path="url(#clip0_1275_1593)">
<path d="M22 0.0703125C9.86915 0.0703125 0 9.93946 0 22.0703C1.10602 51.2162 42.8985 51.2083 44 22.0701C44 9.93955 34.1309 0.0703125 22 0.0703125ZM37.0652 35.6348C34.9049 33.6008 32.3605 32.0335 29.5685 31.0099C29.979 28.4904 30.213 25.7559 30.2525 22.9297H42.2632C42.0591 27.8031 40.1271 32.2375 37.0652 35.6348ZM1.73671 22.9297H13.7474C13.787 25.7559 14.021 28.4904 14.4314 31.0099C11.6393 32.0335 9.09511 33.6007 6.93473 35.6348C3.87295 32.2375 1.9409 27.8031 1.73671 22.9297ZM6.93481 8.50594C8.8978 10.3519 11.1567 11.8054 13.6568 12.8301C13.9136 12.9353 14.1719 13.0356 14.4314 13.1308C14.0209 15.6504 13.7869 18.3848 13.7474 21.2109H1.73671C1.9409 16.3376 3.87295 11.9032 6.93481 8.50594ZM22 29.6673C19.9854 29.6673 18.0043 29.9387 16.0837 30.4763C15.7269 28.204 15.5048 25.6685 15.4663 22.9298H28.5338C28.4952 25.6685 28.2732 28.204 27.9164 30.4763C25.9957 29.9387 24.0146 29.6673 22 29.6673ZM27.6162 32.1706C24.8618 45.5163 19.1372 45.5125 16.3838 32.1706C19.9725 31.1272 24.0274 31.1272 27.6162 32.1706ZM15.4662 21.2109C15.5048 18.4722 15.7268 15.9368 16.0836 13.6644C19.9083 14.7422 24.0916 14.7422 27.9163 13.6644C28.2731 15.9367 28.4952 18.4722 28.5337 21.2109H15.4662ZM22 12.7547C20.0741 12.7547 18.1877 12.4872 16.3838 11.9701C19.1382 -1.37559 24.8627 -1.37172 27.6162 11.9701C25.8123 12.4872 23.9259 12.7547 22 12.7547ZM28.0386 6.92305C27.3103 4.85291 26.4431 3.22534 25.4795 2.08778C29.4546 2.77786 33.0365 4.62921 35.8617 7.27841C33.9209 9.0977 31.6808 10.4947 29.2564 11.4223C28.9264 9.80024 28.5186 8.288 28.0386 6.92305ZM15.9614 6.92305C15.4813 8.288 15.0735 9.80024 14.7436 11.4223C12.3192 10.4947 10.0792 9.0977 8.13828 7.27841C10.9635 4.62921 14.5454 2.77786 18.5205 2.0877C17.5568 3.22534 16.6896 4.85291 15.9614 6.92305ZM14.7436 32.7184C15.386 35.9469 16.6434 39.8699 18.5205 42.053C14.5454 41.3629 10.9635 39.5115 8.13828 36.8623C10.0791 35.043 12.3192 33.646 14.7436 32.7184ZM28.0386 37.2177C28.5187 35.8527 28.9265 34.3405 29.2564 32.7184C31.6808 33.646 33.9209 35.043 35.8617 36.8624C33.0365 39.5116 29.4546 41.3629 25.4795 42.053C26.4431 40.9154 27.3103 39.2878 28.0386 37.2177ZM30.2525 21.2109C30.213 18.3847 29.979 15.6504 29.5685 13.1308C32.3606 12.1072 34.9048 10.5399 37.0652 8.50594C40.127 11.9032 42.0591 16.3376 42.2632 21.2109H30.2525Z" fill="#5957E5"/>
<path fill-rule="evenodd" clip-rule="evenodd" d="M8.25 15.1953H35.7501L33.0573 22.0703L35.7501 28.9453H8.25L10.9428 22.0703L8.25 15.1953Z" fill="#5957E5"/>
<path d="M14.97 26.1C14.4033 26.1 13.9166 26.0033 13.51 25.81C13.11 25.6167 12.7466 25.3267 12.42 24.94L13.32 24.04C13.5266 24.3133 13.7666 24.5267 14.04 24.68C14.3133 24.8267 14.6466 24.9 15.04 24.9C15.3933 24.9 15.6733 24.83 15.88 24.69C16.0933 24.55 16.2 24.3567 16.2 24.11C16.2 23.8967 16.14 23.7233 16.02 23.59C15.9 23.4567 15.74 23.3433 15.54 23.25C15.3466 23.1567 15.13 23.0733 14.89 23C14.6566 22.92 14.42 22.83 14.18 22.73C13.9466 22.63 13.73 22.5067 13.53 22.36C13.3366 22.2067 13.18 22.0133 13.06 21.78C12.94 21.54 12.88 21.24 12.88 20.88C12.88 20.4533 12.9833 20.09 13.19 19.79C13.3966 19.49 13.68 19.26 14.04 19.1C14.4 18.94 14.8066 18.86 15.26 18.86C15.74 18.86 16.1733 18.95 16.56 19.13C16.9466 19.31 17.2633 19.5433 17.51 19.83L16.61 20.73C16.4033 20.5033 16.19 20.3367 15.97 20.23C15.7566 20.1233 15.5133 20.07 15.24 20.07C14.9266 20.07 14.68 20.13 14.5 20.25C14.32 20.37 14.23 20.5433 14.23 20.77C14.23 20.9633 14.29 21.12 14.41 21.24C14.53 21.36 14.6866 21.4633 14.88 21.55C15.08 21.6367 15.2966 21.72 15.53 21.8C15.77 21.88 16.0066 21.97 16.24 22.07C16.48 22.17 16.6966 22.3 16.89 22.46C17.09 22.62 17.25 22.8267 17.37 23.08C17.49 23.3267 17.55 23.6333 17.55 24C17.55 24.6533 17.32 25.1667 16.86 25.54C16.4 25.9133 15.77 26.1 14.97 26.1ZM18.6233 26V18.97H19.9833V26H18.6233ZM19.6233 26V24.8H23.5133V26H19.6233ZM19.6233 22.99V21.83H23.1633V22.99H19.6233ZM19.6233 20.17V18.97H23.4633V20.17H19.6233ZM27.802 26.11C27.2887 26.11 26.8087 26.0167 26.362 25.83C25.922 25.6433 25.5353 25.3867 25.202 25.06C24.8753 24.7267 24.6187 24.34 24.432 23.9C24.2453 23.4533 24.152 22.9767 24.152 22.47C24.152 21.9633 24.242 21.4933 24.422 21.06C24.6087 20.62 24.8653 20.2367 25.192 19.91C25.5253 19.5767 25.912 19.32 26.352 19.14C26.792 18.9533 27.2687 18.86 27.782 18.86C28.302 18.86 28.782 18.9533 29.222 19.14C29.662 19.32 30.0453 19.5767 30.372 19.91C30.7053 20.2367 30.9653 20.62 31.152 21.06C31.3387 21.5 31.432 21.9733 31.432 22.48C31.432 22.9867 31.3387 23.46 31.152 23.9C30.9653 24.34 30.7053 24.7267 30.372 25.06C30.0453 25.3867 29.662 25.6433 29.222 25.83C28.7887 26.0167 28.3153 26.11 27.802 26.11ZM27.782 24.84C28.2353 24.84 28.6287 24.74 28.962 24.54C29.2953 24.34 29.5553 24.0633 29.742 23.71C29.9353 23.3567 30.032 22.9433 30.032 22.47C30.032 22.1233 29.9787 21.8067 29.872 21.52C29.7653 21.2333 29.612 20.9867 29.412 20.78C29.212 20.5667 28.9753 20.4033 28.702 20.29C28.4287 20.1767 28.122 20.12 27.782 20.12C27.342 20.12 26.952 20.22 26.612 20.42C26.2787 20.6133 26.0153 20.8867 25.822 21.24C25.6353 21.5933 25.542 22.0033 25.542 22.47C25.542 22.8233 25.5953 23.1467 25.702 23.44C25.8153 23.7333 25.9687 23.9833 26.162 24.19C26.362 24.3967 26.5987 24.5567 26.872 24.67C27.152 24.7833 27.4553 24.84 27.782 24.84Z" fill="white"/>
</g>
<defs>
<clipPath id="clip0_1275_1593">
<rect width="44" height="44" fill="white"/>
</clipPath>
</defs>
</svg>
