<svg width="44" height="44" viewBox="0 0 44 44" fill="none" xmlns="http://www.w3.org/2000/svg">
<g clip-path="url(#clip0_1275_2522)">
<path d="M9.45356 33.5857H9.45296C8.97841 33.5857 8.59384 33.9704 8.59384 34.4451C8.63612 35.5836 10.2709 35.5837 10.3129 34.4451C10.3129 33.9704 9.92811 33.5857 9.45356 33.5857Z" fill="#141339"/>
<path d="M34.5473 33.5857H34.5466C34.0721 33.5857 33.6876 33.9704 33.6876 34.4451C33.7299 35.5836 35.3647 35.5837 35.4067 34.4451C35.4067 33.9704 35.0219 33.5857 34.5473 33.5857Z" fill="#141339"/>
<path d="M43.1406 30.1481V24.1325C43.1406 23.6579 42.7558 23.2732 42.2813 23.2732H34.9564L29.6283 16.7156C29.4652 16.5148 29.2202 16.3982 28.9613 16.3982H15.3713C14.2323 16.4405 14.2332 18.0751 15.3713 18.1169H18.2192V23.2732H3.18819L5.40391 19.3342C5.63662 18.9204 5.48984 18.3965 5.07623 18.1638C4.6627 17.9311 4.13865 18.0778 3.90594 18.4915L0.969806 23.7112C0.897447 23.8398 0.859463 23.985 0.859463 24.1325V30.1481C0.384918 30.1481 9.15527e-05 30.5329 9.15527e-05 31.0075V34.445C9.15527e-05 34.9196 0.384918 35.3044 0.859463 35.3044H4.36828C5.43029 40.998 13.4776 40.994 14.5375 35.3044H29.4628C30.5248 40.998 38.5721 40.994 39.632 35.3044H43.1408C43.6153 35.3044 44.0002 34.9196 44.0002 34.445V31.0075C44 30.5329 43.6152 30.1481 43.1406 30.1481ZM23.3754 18.1169H28.5523L32.7418 23.2732H23.3754V18.1169ZM2.57812 28.4294H3.86726C5.00628 28.3871 5.00542 26.7525 3.86726 26.7107H2.57812V24.9919H19.0786C19.5531 24.9919 19.9379 24.6072 19.9379 24.1325V18.1169H21.6567V24.1325C21.6567 24.6072 22.0415 24.9919 22.5161 24.9919H41.4219V26.7107H40.1328C38.9938 26.7529 38.9947 28.3875 40.1328 28.4294H41.4219V30.1481H37.3947C35.789 29.0152 33.3055 29.0152 31.6997 30.1481H12.3002C10.6945 29.0152 8.21096 29.0152 6.60522 30.1481H2.57812V28.4294ZM29.4626 33.5856H14.5373C14.4334 32.9689 14.2197 32.3891 13.9169 31.8669H30.0829C29.7803 32.389 29.5665 32.9689 29.4626 33.5856ZM1.71875 31.8669H4.98849C4.68582 32.389 4.472 32.9689 4.36811 33.5856H1.71875V31.8669ZM9.45275 37.8825C7.55732 37.8825 6.01526 36.3404 6.01526 34.445C6.18808 29.891 12.7181 29.8922 12.8902 34.4451C12.8902 36.3404 11.3482 37.8825 9.45275 37.8825ZM34.5473 37.8825C32.6518 37.8825 31.1098 36.3404 31.1098 34.445C31.2826 29.891 37.8126 29.8922 37.9847 34.4451C37.9847 36.3404 36.4427 37.8825 34.5473 37.8825ZM42.2813 33.5856H39.6318C39.5279 32.9689 39.3142 32.3891 39.0114 31.8669H42.2812V33.5856H42.2813Z" fill="#141339"/>
<path fill-rule="evenodd" clip-rule="evenodd" d="M9.45312 21.5557C14.1864 21.5557 18.0469 17.6953 18.0469 12.9621C17.6072 1.57846 1.29723 1.58155 0.859375 12.9622C0.859375 17.6953 4.71986 21.5557 9.45312 21.5557Z" fill="#F6AA32"/>
<path d="M12.0315 8.49791C11.6203 8.26047 11.0949 8.40141 10.8576 8.81244L6.56071 16.2549C6.32335 16.6659 6.4642 17.1915 6.87524 17.4288C7.27898 17.664 7.81059 17.529 8.04915 17.1143L12.346 9.67182C12.5834 9.26078 12.4425 8.73519 12.0315 8.49791Z" fill="#141339"/>
<path d="M7.30551 10.1013C8.44452 10.059 8.44366 8.42442 7.30551 8.38257H7.3049C6.1658 8.42502 6.16735 10.0596 7.30551 10.1013Z" fill="#141339"/>
<path d="M11.602 15.824H11.6013C11.1268 15.824 10.7423 16.2087 10.7423 16.6833C10.7846 17.8218 12.4193 17.8219 12.4614 16.6833C12.4614 16.2087 12.0765 15.824 11.602 15.824Z" fill="#141339"/>
</g>
<defs>
<clipPath id="clip0_1275_2522">
<rect width="44" height="44" fill="white"/>
</clipPath>
</defs>
</svg>
