<svg width="52" height="52" viewBox="0 0 52 52" fill="none" xmlns="http://www.w3.org/2000/svg">
<g clip-path="url(#clip0_1275_4437)">
<path d="M11.1718 39.6931H11.1711C10.6103 39.6931 10.1558 40.1478 10.1558 40.7087C10.2057 42.0542 12.1378 42.0543 12.1874 40.7087C12.1874 40.1478 11.7326 39.6931 11.1718 39.6931Z" fill="#31572C"/>
<path d="M40.8288 39.6931H40.828C40.2671 39.6931 39.8127 40.1478 39.8127 40.7087C39.8627 42.0542 41.7947 42.0543 41.8444 40.7087C41.8444 40.1478 41.3896 39.6931 40.8288 39.6931Z" fill="#31572C"/>
<path d="M50.9843 35.6306V28.5212C50.9843 27.9603 50.5295 27.5056 49.9687 27.5056H41.312L35.0152 19.7558C34.8224 19.5184 34.5328 19.3806 34.2269 19.3806H18.166C16.8199 19.4306 16.8209 21.3624 18.166 21.4119H21.5317V27.5056H3.76775L6.38633 22.8504C6.66136 22.3615 6.48789 21.7422 5.99907 21.4672C5.51035 21.1922 4.89103 21.3656 4.616 21.8545L1.14603 28.0232C1.06051 28.1753 1.01562 28.3468 1.01562 28.5212V35.6306C0.454795 35.6306 0 36.0852 0 36.6462V40.7087C0 41.2696 0.454795 41.7243 1.01562 41.7243H5.1624C6.41751 48.4532 15.928 48.4484 17.1805 41.7243H34.8196C36.0747 48.4532 45.5851 48.4484 46.8377 41.7243H50.9845C51.5453 41.7243 52.0001 41.2696 52.0001 40.7087V36.6462C51.9999 36.0852 51.5451 35.6306 50.9843 35.6306ZM27.6254 21.4119H33.7435L38.6948 27.5056H27.6254V21.4119ZM3.04676 33.5993H4.57029C5.9164 33.5493 5.91538 31.6175 4.57029 31.5681H3.04676V29.5368H22.5473C23.1081 29.5368 23.5629 29.0821 23.5629 28.5212V21.4119H25.5942V28.5212C25.5942 29.0821 26.049 29.5368 26.6098 29.5368H48.953V31.5681H47.4296C46.0835 31.618 46.0845 33.5498 47.4296 33.5993H48.953V35.6306H44.1936C42.2959 34.2917 39.3609 34.2917 37.4632 35.6306H14.5365C12.6388 34.2917 9.70375 34.2917 7.80606 35.6306H3.04676V33.5993ZM34.8193 39.693H17.1803C17.0576 38.9642 16.805 38.279 16.4472 37.6618H35.5524C35.1948 38.2789 34.9421 38.9642 34.8193 39.693ZM2.03114 37.6618H5.89538C5.53767 38.2789 5.28499 38.9641 5.1622 39.693H2.03114V37.6618ZM11.1713 44.7711C8.93127 44.7711 7.10884 42.9487 7.10884 40.7087C7.31308 35.3267 15.0304 35.3281 15.2338 40.7088C15.2338 42.9487 13.4114 44.7711 11.1713 44.7711ZM40.8285 44.7711C38.5884 44.7711 36.766 42.9487 36.766 40.7087C36.9702 35.3267 44.6875 35.3281 44.891 40.7088C44.891 42.9487 43.0685 44.7711 40.8285 44.7711ZM49.9687 39.693H46.8375C46.7147 38.9642 46.4621 38.279 46.1043 37.6618H49.9686V39.693H49.9687Z" fill="#31572C"/>
<path fill-rule="evenodd" clip-rule="evenodd" d="M11.1719 25.475C16.7657 25.475 21.3281 20.9126 21.3281 15.3189C20.8085 1.8655 1.53309 1.86915 1.01562 15.319C1.01562 20.9126 5.57802 25.475 11.1719 25.475Z" fill="#F1C832"/>
<path d="M14.2184 10.0423C13.7325 9.76171 13.1115 9.92827 12.8311 10.414L7.75297 19.2097C7.47246 19.6954 7.63892 20.3166 8.12469 20.597C8.60183 20.875 9.2301 20.7154 9.51203 20.2253L14.5902 11.4297C14.8707 10.9439 14.7042 10.3227 14.2184 10.0423Z" fill="#31572C"/>
<path d="M8.63313 11.9373C9.97924 11.8873 9.97822 9.95547 8.63313 9.90601H8.63242C7.28621 9.95618 7.28804 11.8879 8.63313 11.9373Z" fill="#31572C"/>
<path d="M13.7104 18.7009H13.7096C13.1487 18.7009 12.6943 19.1556 12.6943 19.7166C12.7443 21.0621 14.6763 21.0622 14.726 19.7166C14.726 19.1556 14.2712 18.7009 13.7104 18.7009Z" fill="#31572C"/>
</g>
<defs>
<clipPath id="clip0_1275_4437">
<rect width="52" height="52" fill="white"/>
</clipPath>
</defs>
</svg>
