<svg width="45" height="44" viewBox="0 0 45 44" fill="none" xmlns="http://www.w3.org/2000/svg">
<g clip-path="url(#clip0_1275_621)">
<path d="M22.5 0.0703125C10.3691 0.0703125 0.5 9.93946 0.5 22.0703C1.60602 51.2162 43.3985 51.2083 44.5 22.0701C44.5 9.93955 34.6309 0.0703125 22.5 0.0703125ZM37.5652 35.6348C35.4049 33.6008 32.8605 32.0335 30.0685 31.0099C30.479 28.4904 30.713 25.7559 30.7525 22.9297H42.7632C42.5591 27.8031 40.6271 32.2375 37.5652 35.6348ZM2.23671 22.9297H14.2474C14.287 25.7559 14.521 28.4904 14.9314 31.0099C12.1393 32.0335 9.59511 33.6007 7.43473 35.6348C4.37295 32.2375 2.4409 27.8031 2.23671 22.9297ZM7.43481 8.50594C9.3978 10.3519 11.6567 11.8054 14.1568 12.8301C14.4136 12.9353 14.6719 13.0356 14.9314 13.1308C14.5209 15.6504 14.2869 18.3848 14.2474 21.2109H2.23671C2.4409 16.3376 4.37295 11.9032 7.43481 8.50594ZM22.5 29.6673C20.4854 29.6673 18.5043 29.9387 16.5837 30.4763C16.2269 28.204 16.0048 25.6685 15.9663 22.9298H29.0338C28.9952 25.6685 28.7732 28.204 28.4164 30.4763C26.4957 29.9387 24.5146 29.6673 22.5 29.6673ZM28.1162 32.1706C25.3618 45.5163 19.6372 45.5125 16.8838 32.1706C20.4725 31.1272 24.5274 31.1272 28.1162 32.1706ZM15.9662 21.2109C16.0048 18.4722 16.2268 15.9368 16.5836 13.6644C20.4083 14.7422 24.5916 14.7422 28.4163 13.6644C28.7731 15.9367 28.9952 18.4722 29.0337 21.2109H15.9662ZM22.5 12.7547C20.5741 12.7547 18.6877 12.4872 16.8838 11.9701C19.6382 -1.37559 25.3627 -1.37172 28.1162 11.9701C26.3123 12.4872 24.4259 12.7547 22.5 12.7547ZM28.5386 6.92305C27.8103 4.85291 26.9431 3.22534 25.9795 2.08778C29.9546 2.77786 33.5365 4.62921 36.3617 7.27841C34.4209 9.0977 32.1808 10.4947 29.7564 11.4223C29.4264 9.80024 29.0186 8.288 28.5386 6.92305ZM16.4614 6.92305C15.9813 8.288 15.5735 9.80024 15.2436 11.4223C12.8192 10.4947 10.5792 9.0977 8.63828 7.27841C11.4635 4.62921 15.0454 2.77786 19.0205 2.0877C18.0568 3.22534 17.1896 4.85291 16.4614 6.92305ZM15.2436 32.7184C15.886 35.9469 17.1434 39.8699 19.0205 42.053C15.0454 41.3629 11.4635 39.5115 8.63828 36.8623C10.5791 35.043 12.8192 33.646 15.2436 32.7184ZM28.5386 37.2177C29.0187 35.8527 29.4265 34.3405 29.7564 32.7184C32.1808 33.646 34.4209 35.043 36.3617 36.8624C33.5365 39.5116 29.9546 41.3629 25.9795 42.053C26.9431 40.9154 27.8103 39.2878 28.5386 37.2177ZM30.7525 21.2109C30.713 18.3847 30.479 15.6504 30.0685 13.1308C32.8606 12.1072 35.4048 10.5399 37.5652 8.50594C40.627 11.9032 42.5591 16.3376 42.7632 21.2109H30.7525Z" fill="#FA6444"/>
<path fill-rule="evenodd" clip-rule="evenodd" d="M8.75 15.1953H36.2501L33.5573 22.0703L36.2501 28.9453H8.75L11.4428 22.0703L8.75 15.1953Z" fill="#FA6444"/>
<path d="M15.47 26.1C14.9033 26.1 14.4166 26.0033 14.01 25.81C13.61 25.6167 13.2466 25.3267 12.92 24.94L13.82 24.04C14.0266 24.3133 14.2666 24.5267 14.54 24.68C14.8133 24.8267 15.1466 24.9 15.54 24.9C15.8933 24.9 16.1733 24.83 16.38 24.69C16.5933 24.55 16.7 24.3567 16.7 24.11C16.7 23.8967 16.64 23.7233 16.52 23.59C16.4 23.4567 16.24 23.3433 16.04 23.25C15.8466 23.1567 15.63 23.0733 15.39 23C15.1566 22.92 14.92 22.83 14.68 22.73C14.4466 22.63 14.23 22.5067 14.03 22.36C13.8366 22.2067 13.68 22.0133 13.56 21.78C13.44 21.54 13.38 21.24 13.38 20.88C13.38 20.4533 13.4833 20.09 13.69 19.79C13.8966 19.49 14.18 19.26 14.54 19.1C14.9 18.94 15.3066 18.86 15.76 18.86C16.24 18.86 16.6733 18.95 17.06 19.13C17.4466 19.31 17.7633 19.5433 18.01 19.83L17.11 20.73C16.9033 20.5033 16.69 20.3367 16.47 20.23C16.2566 20.1233 16.0133 20.07 15.74 20.07C15.4266 20.07 15.18 20.13 15 20.25C14.82 20.37 14.73 20.5433 14.73 20.77C14.73 20.9633 14.79 21.12 14.91 21.24C15.03 21.36 15.1866 21.4633 15.38 21.55C15.58 21.6367 15.7966 21.72 16.03 21.8C16.27 21.88 16.5066 21.97 16.74 22.07C16.98 22.17 17.1966 22.3 17.39 22.46C17.59 22.62 17.75 22.8267 17.87 23.08C17.99 23.3267 18.05 23.6333 18.05 24C18.05 24.6533 17.82 25.1667 17.36 25.54C16.9 25.9133 16.27 26.1 15.47 26.1ZM19.1233 26V18.97H20.4833V26H19.1233ZM20.1233 26V24.8H24.0133V26H20.1233ZM20.1233 22.99V21.83H23.6633V22.99H20.1233ZM20.1233 20.17V18.97H23.9633V20.17H20.1233ZM28.302 26.11C27.7887 26.11 27.3087 26.0167 26.862 25.83C26.422 25.6433 26.0353 25.3867 25.702 25.06C25.3753 24.7267 25.1187 24.34 24.932 23.9C24.7453 23.4533 24.652 22.9767 24.652 22.47C24.652 21.9633 24.742 21.4933 24.922 21.06C25.1087 20.62 25.3653 20.2367 25.692 19.91C26.0253 19.5767 26.412 19.32 26.852 19.14C27.292 18.9533 27.7687 18.86 28.282 18.86C28.802 18.86 29.282 18.9533 29.722 19.14C30.162 19.32 30.5453 19.5767 30.872 19.91C31.2053 20.2367 31.4653 20.62 31.652 21.06C31.8387 21.5 31.932 21.9733 31.932 22.48C31.932 22.9867 31.8387 23.46 31.652 23.9C31.4653 24.34 31.2053 24.7267 30.872 25.06C30.5453 25.3867 30.162 25.6433 29.722 25.83C29.2887 26.0167 28.8153 26.11 28.302 26.11ZM28.282 24.84C28.7353 24.84 29.1287 24.74 29.462 24.54C29.7953 24.34 30.0553 24.0633 30.242 23.71C30.4353 23.3567 30.532 22.9433 30.532 22.47C30.532 22.1233 30.4787 21.8067 30.372 21.52C30.2653 21.2333 30.112 20.9867 29.912 20.78C29.712 20.5667 29.4753 20.4033 29.202 20.29C28.9287 20.1767 28.622 20.12 28.282 20.12C27.842 20.12 27.452 20.22 27.112 20.42C26.7787 20.6133 26.5153 20.8867 26.322 21.24C26.1353 21.5933 26.042 22.0033 26.042 22.47C26.042 22.8233 26.0953 23.1467 26.202 23.44C26.3153 23.7333 26.4687 23.9833 26.662 24.19C26.862 24.3967 27.0987 24.5567 27.372 24.67C27.652 24.7833 27.9553 24.84 28.282 24.84Z" fill="white"/>
</g>
<defs>
<clipPath id="clip0_1275_621">
<rect width="44" height="44" fill="white" transform="translate(0.5)"/>
</clipPath>
</defs>
</svg>
