<svg width="45" height="44" viewBox="0 0 45 44" fill="none" xmlns="http://www.w3.org/2000/svg">
<g clip-path="url(#clip0_1275_692)">
<path d="M9.95347 33.5857H9.95287C9.47832 33.5857 9.09375 33.9704 9.09375 34.4451C9.13603 35.5836 10.7708 35.5837 10.8128 34.4451C10.8128 33.9704 10.428 33.5857 9.95347 33.5857Z" fill="#FA6444"/>
<path d="M35.0472 33.5857H35.0465C34.572 33.5857 34.1875 33.9704 34.1875 34.4451C34.2298 35.5836 35.8646 35.5837 35.9066 34.4451C35.9066 33.9704 35.5218 33.5857 35.0472 33.5857Z" fill="#FA6444"/>
<path d="M43.6405 30.1481V24.1325C43.6405 23.6579 43.2557 23.2732 42.7812 23.2732H35.4563L30.1282 16.7156C29.9651 16.5148 29.7201 16.3982 29.4613 16.3982H15.8712C14.7322 16.4405 14.7331 18.0751 15.8712 18.1169H18.7191V23.2732H3.6881L5.90381 19.3342C6.13653 18.9204 5.98975 18.3965 5.57614 18.1638C5.16261 17.9311 4.63856 18.0778 4.40584 18.4915L1.46971 23.7112C1.39736 23.8398 1.35937 23.985 1.35937 24.1325V30.1481C0.884827 30.1481 0.5 30.5329 0.5 31.0075V34.445C0.5 34.9196 0.884827 35.3044 1.35937 35.3044H4.86819C5.9302 40.998 13.9775 40.994 15.0374 35.3044H29.9627C31.0247 40.998 39.072 40.994 40.1319 35.3044H43.6407C44.1153 35.3044 44.5001 34.9196 44.5001 34.445V31.0075C44.4999 30.5329 44.1151 30.1481 43.6405 30.1481ZM23.8753 18.1169H29.0522L33.2417 23.2732H23.8753V18.1169ZM3.07803 28.4294H4.36717C5.50618 28.3871 5.50532 26.7525 4.36717 26.7107H3.07803V24.9919H19.5785C20.053 24.9919 20.4379 24.6072 20.4379 24.1325V18.1169H22.1566V24.1325C22.1566 24.6072 22.5414 24.9919 23.016 24.9919H41.9218V26.7107H40.6327C39.4937 26.7529 39.4946 28.3875 40.6327 28.4294H41.9218V30.1481H37.8946C36.2889 29.0152 33.8054 29.0152 32.1996 30.1481H12.8001C11.1944 29.0152 8.71087 29.0152 7.10513 30.1481H3.07803V28.4294ZM29.9625 33.5856H15.0372C14.9333 32.9689 14.7196 32.3891 14.4168 31.8669H30.5828C30.2802 32.389 30.0664 32.9689 29.9625 33.5856ZM2.21866 31.8669H5.48839C5.18572 32.389 4.97191 32.9689 4.86801 33.5856H2.21866V31.8669ZM9.95266 37.8825C8.05723 37.8825 6.51517 36.3404 6.51517 34.445C6.68799 29.891 13.218 29.8922 13.3901 34.4451C13.3901 36.3404 11.8481 37.8825 9.95266 37.8825ZM35.0472 37.8825C33.1517 37.8825 31.6097 36.3404 31.6097 34.445C31.7825 29.891 38.3125 29.8922 38.4847 34.4451C38.4847 36.3404 36.9426 37.8825 35.0472 37.8825ZM42.7812 33.5856H40.1317C40.0278 32.9689 39.8141 32.3891 39.5113 31.8669H42.7811V33.5856H42.7812Z" fill="#FA6444"/>
<path fill-rule="evenodd" clip-rule="evenodd" d="M9.95312 21.5557C14.6864 21.5557 18.5469 17.6953 18.5469 12.9621C18.1072 1.57846 1.79723 1.58155 1.35938 12.9622C1.35938 17.6953 5.21986 21.5557 9.95312 21.5557Z" fill="#FA6444"/>
<path d="M12.5314 8.49791C12.1202 8.26047 11.5948 8.40141 11.3575 8.81244L7.06062 16.2549C6.82326 16.6659 6.96411 17.1915 7.37515 17.4288C7.77889 17.664 8.31049 17.529 8.54906 17.1143L12.8459 9.67182C13.0833 9.26078 12.9424 8.73519 12.5314 8.49791Z" fill="white"/>
<path d="M7.80544 10.1013C8.94446 10.059 8.9436 8.42442 7.80544 8.38257H7.80484C6.66574 8.42502 6.66729 10.0596 7.80544 10.1013Z" fill="white"/>
<path d="M12.1019 15.824H12.1012C11.6267 15.824 11.2422 16.2087 11.2422 16.6833C11.2845 17.8218 12.9193 17.8219 12.9613 16.6833C12.9613 16.2087 12.5765 15.824 12.1019 15.824Z" fill="white"/>
</g>
<defs>
<clipPath id="clip0_1275_692">
<rect width="44" height="44" fill="white" transform="translate(0.5)"/>
</clipPath>
</defs>
</svg>
