<svg width="44" height="44" viewBox="0 0 44 44" fill="none" xmlns="http://www.w3.org/2000/svg">
<path d="M38.0429 11.3516H31.7139C31.2393 11.3516 30.8545 11.7363 30.8545 12.2109V27.8415C30.8968 28.9805 32.5314 28.9797 32.5732 27.8415V13.0703H37.1834V27.8415C37.2257 28.9805 38.8603 28.9797 38.9022 27.8415V12.2109C38.9023 11.7364 38.5175 11.3516 38.0429 11.3516Z" fill="#5957E5"/>
<path d="M27.7578 18.4053H21.4289C20.9543 18.4053 20.5695 18.7901 20.5695 19.2647V32.5127H18.3326V12.2109C18.3326 11.7363 17.9478 11.3516 17.4732 11.3516H11.1442C10.6697 11.3516 10.2848 11.7363 10.2848 12.2109V32.5127H8.04779V19.2647C8.04779 18.7901 7.66296 18.4053 7.18841 18.4053H0.859375C0.384828 18.4053 0 18.7901 0 19.2647V33.3721C0 33.8467 0.384828 34.2315 0.859375 34.2315H21.4201C21.9671 34.239 22.388 33.7034 22.2565 33.1742C22.2771 33.1005 22.2882 33.0227 22.2882 32.9423V20.1241H26.8984V26.5263C26.9407 27.6653 28.5753 27.6645 28.6172 26.5263V19.2647C28.6172 18.7901 28.2324 18.4053 27.7578 18.4053ZM6.32904 32.5127H1.71875V20.1241H6.32904V32.5127ZM12.0035 13.0703H16.6138V32.5127H12.0035V13.0703Z" fill="#5957E5"/>
<path d="M4.02435 11.5307C4.18634 11.5307 4.35014 11.485 4.49555 11.3893L14.3081 4.93901L24.1208 11.3893C24.4074 11.5776 24.7784 11.5776 25.0649 11.3893L33.6159 5.76839L33.266 7.46067C33.0734 8.57906 34.6777 8.91774 34.9491 7.80872L35.7191 4.0847C35.7653 3.86152 35.7209 3.62906 35.5956 3.43863C35.4704 3.24819 35.2747 3.11524 35.0515 3.06909L31.3274 2.29909C30.8634 2.20345 30.408 2.50182 30.3119 2.96666C30.2158 3.43149 30.5146 3.88619 30.9795 3.98227L32.6718 4.3322L24.5928 9.64288L14.7802 3.1925C14.4937 3.00421 14.1226 3.00421 13.8361 3.1925L3.55144 9.95303C3.15484 10.2138 3.04475 10.7466 3.3054 11.1433C3.47048 11.3944 3.74462 11.5307 4.02435 11.5307Z" fill="#5957E5"/>
<path fill-rule="evenodd" clip-rule="evenodd" d="M22.323 26.5332H42.2462C43.2108 26.5332 43.9999 27.3225 43.9999 28.2868V39.9673C43.9999 40.9318 43.2107 41.7209 42.2462 41.7209H22.323C21.3585 41.7209 20.5693 40.9318 20.5693 39.9673V28.2868C20.5693 27.3223 21.3584 26.5332 22.323 26.5332Z" fill="#5957E5"/>
<path d="M26.6017 37.6152V36.7272H28.0657C28.3271 36.7272 28.5297 36.6472 28.6737 36.4872C28.8231 36.3272 28.8977 36.1379 28.8977 35.9192C28.8977 35.7699 28.8657 35.6339 28.8017 35.5112C28.7377 35.3886 28.6417 35.2926 28.5137 35.2232C28.3911 35.1486 28.2417 35.1112 28.0657 35.1112H26.6017V34.2312H27.9457C28.1697 34.2312 28.3484 34.1752 28.4817 34.0632C28.6204 33.9512 28.6897 33.7832 28.6897 33.5592C28.6897 33.3299 28.6204 33.1592 28.4817 33.0472C28.3484 32.9352 28.1697 32.8792 27.9457 32.8792H26.6017V31.9912H28.0737C28.4471 31.9912 28.7591 32.0606 29.0097 32.1992C29.2657 32.3326 29.4577 32.5112 29.5857 32.7352C29.7137 32.9539 29.7777 33.1939 29.7777 33.4552C29.7777 33.7752 29.6791 34.0526 29.4817 34.2872C29.2897 34.5166 29.0071 34.6872 28.6337 34.7992L28.6817 34.4472C29.0977 34.5646 29.4177 34.7592 29.6417 35.0312C29.8711 35.2979 29.9857 35.6206 29.9857 35.9992C29.9857 36.2979 29.9111 36.5699 29.7617 36.8152C29.6177 37.0552 29.4044 37.2499 29.1217 37.3992C28.8444 37.5432 28.5057 37.6152 28.1057 37.6152H26.6017ZM25.8017 37.6152V31.9912H26.8817V37.6152H25.8017ZM32.3712 37.6952C31.9179 37.6952 31.5286 37.6179 31.2032 37.4632C30.8832 37.3086 30.5926 37.0766 30.3312 36.7672L31.0512 36.0472C31.2166 36.2659 31.4086 36.4366 31.6272 36.5592C31.8459 36.6766 32.1126 36.7352 32.4272 36.7352C32.7099 36.7352 32.9339 36.6792 33.0992 36.5672C33.2699 36.4552 33.3552 36.3006 33.3552 36.1032C33.3552 35.9326 33.3072 35.7939 33.2112 35.6872C33.1152 35.5806 32.9872 35.4899 32.8272 35.4152C32.6726 35.3406 32.4992 35.2739 32.3072 35.2152C32.1206 35.1512 31.9312 35.0792 31.7392 34.9992C31.5526 34.9192 31.3792 34.8206 31.2192 34.7032C31.0646 34.5806 30.9392 34.4259 30.8432 34.2392C30.7472 34.0472 30.6992 33.8072 30.6992 33.5192C30.6992 33.1779 30.7819 32.8872 30.9472 32.6472C31.1126 32.4072 31.3392 32.2232 31.6272 32.0952C31.9152 31.9672 32.2406 31.9032 32.6032 31.9032C32.9872 31.9032 33.3339 31.9752 33.6432 32.1192C33.9526 32.2632 34.2059 32.4499 34.4032 32.6792L33.6832 33.3992C33.5179 33.2179 33.3472 33.0846 33.1712 32.9992C33.0006 32.9139 32.8059 32.8712 32.5872 32.8712C32.3366 32.8712 32.1392 32.9192 31.9952 33.0152C31.8512 33.1112 31.7792 33.2499 31.7792 33.4312C31.7792 33.5859 31.8272 33.7112 31.9232 33.8072C32.0192 33.9032 32.1446 33.9859 32.2992 34.0552C32.4592 34.1246 32.6326 34.1912 32.8192 34.2552C33.0112 34.3192 33.2006 34.3912 33.3872 34.4712C33.5792 34.5512 33.7526 34.6552 33.9072 34.7832C34.0672 34.9112 34.1952 35.0766 34.2912 35.2792C34.3872 35.4766 34.4352 35.7219 34.4352 36.0152C34.4352 36.5379 34.2512 36.9486 33.8832 37.2472C33.5152 37.5459 33.0112 37.6952 32.3712 37.6952ZM36.7853 37.6952C36.332 37.6952 35.9426 37.6179 35.6173 37.4632C35.2973 37.3086 35.0066 37.0766 34.7453 36.7672L35.4653 36.0472C35.6306 36.2659 35.8226 36.4366 36.0413 36.5592C36.26 36.6766 36.5266 36.7352 36.8413 36.7352C37.124 36.7352 37.348 36.6792 37.5133 36.5672C37.684 36.4552 37.7693 36.3006 37.7693 36.1032C37.7693 35.9326 37.7213 35.7939 37.6253 35.6872C37.5293 35.5806 37.4013 35.4899 37.2413 35.4152C37.0866 35.3406 36.9133 35.2739 36.7213 35.2152C36.5346 35.1512 36.3453 35.0792 36.1533 34.9992C35.9666 34.9192 35.7933 34.8206 35.6333 34.7032C35.4786 34.5806 35.3533 34.4259 35.2573 34.2392C35.1613 34.0472 35.1133 33.8072 35.1133 33.5192C35.1133 33.1779 35.196 32.8872 35.3613 32.6472C35.5266 32.4072 35.7533 32.2232 36.0413 32.0952C36.3293 31.9672 36.6546 31.9032 37.0173 31.9032C37.4013 31.9032 37.748 31.9752 38.0573 32.1192C38.3666 32.2632 38.62 32.4499 38.8173 32.6792L38.0973 33.3992C37.932 33.2179 37.7613 33.0846 37.5853 32.9992C37.4146 32.9139 37.22 32.8712 37.0013 32.8712C36.7506 32.8712 36.5533 32.9192 36.4093 33.0152C36.2653 33.1112 36.1933 33.2499 36.1933 33.4312C36.1933 33.5859 36.2413 33.7112 36.3373 33.8072C36.4333 33.9032 36.5586 33.9859 36.7133 34.0552C36.8733 34.1246 37.0466 34.1912 37.2333 34.2552C37.4253 34.3192 37.6146 34.3912 37.8013 34.4712C37.9933 34.5512 38.1666 34.6552 38.3213 34.7832C38.4813 34.9112 38.6093 35.0766 38.7053 35.2792C38.8013 35.4766 38.8493 35.7219 38.8493 36.0152C38.8493 36.5379 38.6653 36.9486 38.2973 37.2472C37.9293 37.5459 37.4253 37.6952 36.7853 37.6952Z" fill="white"/>
</svg>
