<svg width="44" height="44" viewBox="0 0 44 44" fill="none" xmlns="http://www.w3.org/2000/svg">
<path d="M38.0429 11.3516H31.7139C31.2393 11.3516 30.8545 11.7363 30.8545 12.2109V27.8415C30.8968 28.9805 32.5314 28.9797 32.5732 27.8415V13.0703H37.1834V27.8415C37.2257 28.9805 38.8603 28.9797 38.9022 27.8415V12.2109C38.9023 11.7364 38.5175 11.3516 38.0429 11.3516Z" fill="#141339"/>
<path d="M27.7578 18.4053H21.4289C20.9543 18.4053 20.5695 18.7901 20.5695 19.2647V32.5127H18.3326V12.2109C18.3326 11.7363 17.9478 11.3516 17.4732 11.3516H11.1442C10.6697 11.3516 10.2848 11.7363 10.2848 12.2109V32.5127H8.04779V19.2647C8.04779 18.7901 7.66296 18.4053 7.18841 18.4053H0.859375C0.384828 18.4053 0 18.7901 0 19.2647V33.3721C0 33.8467 0.384828 34.2315 0.859375 34.2315H21.4201C21.9671 34.239 22.388 33.7034 22.2565 33.1742C22.2771 33.1005 22.2882 33.0227 22.2882 32.9423V20.1241H26.8984V26.5263C26.9407 27.6653 28.5753 27.6645 28.6172 26.5263V19.2647C28.6172 18.7901 28.2324 18.4053 27.7578 18.4053ZM6.32904 32.5127H1.71875V20.1241H6.32904V32.5127ZM12.0035 13.0703H16.6138V32.5127H12.0035V13.0703Z" fill="#141339"/>
<path d="M4.02435 11.5307C4.18634 11.5307 4.35014 11.485 4.49555 11.3893L14.3081 4.93901L24.1208 11.3893C24.4074 11.5776 24.7784 11.5776 25.0649 11.3893L33.6159 5.76839L33.266 7.46067C33.0734 8.57906 34.6777 8.91774 34.9491 7.80872L35.7191 4.0847C35.7653 3.86152 35.7209 3.62906 35.5956 3.43863C35.4704 3.24819 35.2747 3.11524 35.0515 3.06909L31.3274 2.29909C30.8634 2.20345 30.408 2.50182 30.3119 2.96666C30.2158 3.43149 30.5146 3.88619 30.9795 3.98227L32.6718 4.3322L24.5928 9.64288L14.7802 3.1925C14.4937 3.00421 14.1226 3.00421 13.8361 3.1925L3.55144 9.95303C3.15484 10.2138 3.04475 10.7466 3.3054 11.1433C3.47048 11.3944 3.74462 11.5307 4.02435 11.5307Z" fill="#141339"/>
<path fill-rule="evenodd" clip-rule="evenodd" d="M22.323 26.5332H42.2462C43.2108 26.5332 43.9999 27.3225 43.9999 28.2868V39.9673C43.9999 40.9318 43.2107 41.7209 42.2462 41.7209H22.323C21.3585 41.7209 20.5693 40.9318 20.5693 39.9673V28.2868C20.5693 27.3223 21.3584 26.5332 22.323 26.5332Z" fill="#F6AA32"/>
<path d="M26.9864 37.6152V36.7272H28.4504C28.7117 36.7272 28.9144 36.6472 29.0584 36.4872C29.2077 36.3272 29.2824 36.1379 29.2824 35.9192C29.2824 35.7699 29.2504 35.6339 29.1864 35.5112C29.1224 35.3886 29.0264 35.2926 28.8984 35.2232C28.7757 35.1486 28.6264 35.1112 28.4504 35.1112H26.9864V34.2312H28.3304C28.5544 34.2312 28.733 34.1752 28.8664 34.0632C29.005 33.9512 29.0744 33.7832 29.0744 33.5592C29.0744 33.3299 29.005 33.1592 28.8664 33.0472C28.733 32.9352 28.5544 32.8792 28.3304 32.8792H26.9864V31.9912H28.4584C28.8317 31.9912 29.1437 32.0606 29.3944 32.1992C29.6504 32.3326 29.8424 32.5112 29.9704 32.7352C30.0984 32.9539 30.1624 33.1939 30.1624 33.4552C30.1624 33.7752 30.0637 34.0526 29.8664 34.2872C29.6744 34.5166 29.3917 34.6872 29.0184 34.7992L29.0664 34.4472C29.4824 34.5646 29.8024 34.7592 30.0264 35.0312C30.2557 35.2979 30.3704 35.6206 30.3704 35.9992C30.3704 36.2979 30.2957 36.5699 30.1464 36.8152C30.0024 37.0552 29.789 37.2499 29.5064 37.3992C29.229 37.5432 28.8904 37.6152 28.4904 37.6152H26.9864ZM26.1864 37.6152V31.9912H27.2664V37.6152H26.1864ZM32.7559 37.6952C32.3025 37.6952 31.9132 37.6179 31.5879 37.4632C31.2679 37.3086 30.9772 37.0766 30.7159 36.7672L31.4359 36.0472C31.6012 36.2659 31.7932 36.4366 32.0119 36.5592C32.2305 36.6766 32.4972 36.7352 32.8119 36.7352C33.0945 36.7352 33.3185 36.6792 33.4839 36.5672C33.6545 36.4552 33.7399 36.3006 33.7399 36.1032C33.7399 35.9326 33.6919 35.7939 33.5959 35.6872C33.4999 35.5806 33.3719 35.4899 33.2119 35.4152C33.0572 35.3406 32.8839 35.2739 32.6919 35.2152C32.5052 35.1512 32.3159 35.0792 32.1239 34.9992C31.9372 34.9192 31.7639 34.8206 31.6039 34.7032C31.4492 34.5806 31.3239 34.4259 31.2279 34.2392C31.1319 34.0472 31.0839 33.8072 31.0839 33.5192C31.0839 33.1779 31.1665 32.8872 31.3319 32.6472C31.4972 32.4072 31.7239 32.2232 32.0119 32.0952C32.2999 31.9672 32.6252 31.9032 32.9879 31.9032C33.3719 31.9032 33.7185 31.9752 34.0279 32.1192C34.3372 32.2632 34.5905 32.4499 34.7879 32.6792L34.0679 33.3992C33.9025 33.2179 33.7319 33.0846 33.5559 32.9992C33.3852 32.9139 33.1905 32.8712 32.9719 32.8712C32.7212 32.8712 32.5239 32.9192 32.3799 33.0152C32.2359 33.1112 32.1639 33.2499 32.1639 33.4312C32.1639 33.5859 32.2119 33.7112 32.3079 33.8072C32.4039 33.9032 32.5292 33.9859 32.6839 34.0552C32.8439 34.1246 33.0172 34.1912 33.2039 34.2552C33.3959 34.3192 33.5852 34.3912 33.7719 34.4712C33.9639 34.5512 34.1372 34.6552 34.2919 34.7832C34.4519 34.9112 34.5799 35.0766 34.6759 35.2792C34.7719 35.4766 34.8199 35.7219 34.8199 36.0152C34.8199 36.5379 34.6359 36.9486 34.2679 37.2472C33.8999 37.5459 33.3959 37.6952 32.7559 37.6952ZM37.1699 37.6952C36.7166 37.6952 36.3272 37.6179 36.0019 37.4632C35.6819 37.3086 35.3912 37.0766 35.1299 36.7672L35.8499 36.0472C36.0152 36.2659 36.2072 36.4366 36.4259 36.5592C36.6446 36.6766 36.9112 36.7352 37.2259 36.7352C37.5086 36.7352 37.7326 36.6792 37.8979 36.5672C38.0686 36.4552 38.1539 36.3006 38.1539 36.1032C38.1539 35.9326 38.1059 35.7939 38.0099 35.6872C37.9139 35.5806 37.7859 35.4899 37.6259 35.4152C37.4712 35.3406 37.2979 35.2739 37.1059 35.2152C36.9192 35.1512 36.7299 35.0792 36.5379 34.9992C36.3512 34.9192 36.1779 34.8206 36.0179 34.7032C35.8632 34.5806 35.7379 34.4259 35.6419 34.2392C35.5459 34.0472 35.4979 33.8072 35.4979 33.5192C35.4979 33.1779 35.5806 32.8872 35.7459 32.6472C35.9112 32.4072 36.1379 32.2232 36.4259 32.0952C36.7139 31.9672 37.0392 31.9032 37.4019 31.9032C37.7859 31.9032 38.1326 31.9752 38.4419 32.1192C38.7512 32.2632 39.0046 32.4499 39.2019 32.6792L38.4819 33.3992C38.3166 33.2179 38.1459 33.0846 37.9699 32.9992C37.7992 32.9139 37.6046 32.8712 37.3859 32.8712C37.1352 32.8712 36.9379 32.9192 36.7939 33.0152C36.6499 33.1112 36.5779 33.2499 36.5779 33.4312C36.5779 33.5859 36.6259 33.7112 36.7219 33.8072C36.8179 33.9032 36.9432 33.9859 37.0979 34.0552C37.2579 34.1246 37.4312 34.1912 37.6179 34.2552C37.8099 34.3192 37.9992 34.3912 38.1859 34.4712C38.3779 34.5512 38.5512 34.6552 38.7059 34.7832C38.8659 34.9112 38.9939 35.0766 39.0899 35.2792C39.1859 35.4766 39.2339 35.7219 39.2339 36.0152C39.2339 36.5379 39.0499 36.9486 38.6819 37.2472C38.3139 37.5459 37.8099 37.6952 37.1699 37.6952Z" fill="#141339"/>
</svg>
