<svg width="44" height="44" viewBox="0 0 44 44" fill="none" xmlns="http://www.w3.org/2000/svg">
<g clip-path="url(#clip0_1275_2429)">
<path fill-rule="evenodd" clip-rule="evenodd" d="M23.6717 26.7077L29.6985 31.2645L29.757 31.2307L31.5391 29.8833V12.2034C29.6406 12.2034 28.1016 10.6643 28.1016 8.76587H20.3672C20.3672 10.6643 18.8282 12.2034 16.9297 12.2034V29.2772L20.3282 26.7077C20.8292 26.3294 21.4171 26.147 22 26.1475C22.5829 26.147 23.1707 26.3294 23.6717 26.7077Z" fill="#F6AA32"/>
<path d="M38.4483 18.3284L35.836 16.5253V5.32828C35.836 4.85373 35.4511 4.4689 34.9766 4.4689H31.3671V0.859372C31.3671 0.384827 30.9822 0 30.5077 0H9.02339C8.54885 0 8.16402 0.384827 8.16402 0.859372V16.5253L5.5517 18.3284C4.22501 19.2442 3.95319 20.3062 3.95319 21.619V41.1117C3.95319 42.7043 5.24886 43.9999 6.84136 43.9999H37.1585C38.751 43.9999 40.0467 42.7043 40.0467 41.1117V21.619C40.0468 20.3062 39.775 19.2443 38.4483 18.3284ZM38.3281 25.8276V36.7116L31.1304 31.2695L38.3281 25.8276ZM37.4719 19.7429C38.1987 20.2446 38.3281 20.6706 38.3281 21.619V23.6729L35.836 25.5571V18.6136L37.4719 19.7429ZM34.1172 26.8566L29.7055 30.1922L24.1896 26.0218C23.5538 25.5417 22.7977 25.288 22.0039 25.288H21.9974C21.2023 25.288 20.446 25.5417 19.8099 26.0221L14.3516 30.1491V6.18765H34.1171V26.8566H34.1172ZM5.67193 25.8276L12.8696 31.2696L5.67193 36.7117V25.8276ZM29.6483 1.71874V4.4689H13.4923C13.0178 4.4689 12.6329 4.85373 12.6329 5.32828V28.936L9.88276 26.8566V1.71874H29.6483ZM6.52804 19.7429L8.16402 18.6137V25.557L5.67193 23.6728V21.619C5.67193 20.6706 5.80126 20.2446 6.52804 19.7429ZM37.1586 42.2813H6.84136C6.19649 42.2813 5.67193 41.7567 5.67193 41.1118V38.8665L20.8461 27.3934C21.1811 27.1405 21.5792 27.0068 21.999 27.0068H22.0024C22.4207 27.0068 22.8189 27.1405 23.1534 27.3931L38.3281 38.8664V41.1118C38.3281 41.7566 37.8034 42.2813 37.1586 42.2813Z" fill="#141339"/>
<path d="M20.3677 22.5168H20.7669C21.002 22.9843 21.3992 23.3729 21.9193 23.5883C22.2012 23.705 22.4936 23.7604 22.7812 23.7604C23.6683 23.7603 24.5118 23.2346 24.8719 22.3653L25.1857 21.6075C25.2404 21.4754 25.3446 21.3721 25.4791 21.3163C25.6134 21.2607 25.7603 21.26 25.8927 21.3147C26.1635 21.427 26.2977 21.7506 26.1855 22.0215L26.0285 22.4004C25.8469 22.8388 26.055 23.3416 26.4934 23.5232C26.9321 23.705 27.4346 23.4968 27.6163 23.0583L27.7734 22.6793C27.7957 22.6255 27.8157 22.5713 27.8336 22.5168H28.102C29.241 22.4746 29.2402 20.84 28.102 20.7981H27.7028C27.4676 20.3307 27.0705 19.9421 26.5504 19.7267C25.3992 19.2499 24.0747 19.7985 23.5979 20.9497L23.284 21.7075C23.1718 21.9784 22.8482 22.1123 22.5771 22.0002C22.3062 21.8879 22.1721 21.5643 22.2842 21.2934L22.4412 20.9145C22.6229 20.4761 22.4148 19.9733 21.9763 19.7917C21.5379 19.6101 21.0351 19.8182 20.8535 20.2566L20.6964 20.6357C20.6741 20.6894 20.6541 20.7436 20.6363 20.798H20.3678C19.2286 20.8404 19.2295 22.4749 20.3677 22.5168Z" fill="#141339"/>
<path d="M24.2344 16.8754C24.709 16.8754 25.0938 16.4906 25.0938 16.016V14.2973C25.0515 13.1583 23.417 13.1591 23.3751 14.2973V16.016C23.3751 16.4906 23.7598 16.8754 24.2344 16.8754Z" fill="#141339"/>
</g>
<defs>
<clipPath id="clip0_1275_2429">
<rect width="44" height="44" fill="white"/>
</clipPath>
</defs>
</svg>
