<svg width="45" height="44" viewBox="0 0 45 44" fill="none" xmlns="http://www.w3.org/2000/svg">
<g clip-path="url(#clip0_1275_719)">
<path d="M35.9881 16.6799L18.9489 2.48041C18.6303 2.21486 18.1673 2.21486 17.8485 2.48041L0.80926 16.6799C0.444885 16.9835 0.395385 17.525 0.698659 17.8896L3.21104 20.9106C3.35688 21.0859 3.56648 21.1961 3.79353 21.2168C4.01989 21.238 4.24659 21.1673 4.4219 21.0213L5.26366 20.3198V37.3549H1.35935C0.22033 37.3972 0.22119 39.0317 1.35935 39.0736H30.2639C31.4029 39.0313 31.4021 37.3968 30.2639 37.3549H23.6423V22.4311C23.6423 21.9566 23.2574 21.5718 22.7829 21.5718H14.0145C13.54 21.5718 13.1551 21.9566 13.1551 22.4311V37.3548H6.98241V18.8875L18.3988 9.37397L29.8151 18.8877V27.3224C29.8574 28.4615 31.492 28.4606 31.5339 27.3224V20.32L32.3755 21.0213C32.5505 21.1674 32.7784 21.2379 33.0039 21.2168C33.231 21.1961 33.4405 21.086 33.5863 20.9107L36.0987 17.8897C36.4021 17.525 36.3526 16.9835 35.9881 16.6799ZM14.8739 31.1821H15.7681C16.9072 31.1398 16.9063 29.5053 15.7681 29.4633H14.8739V23.2905H21.9235V37.3548H14.8739V31.1821ZM32.815 19.1501L18.9489 7.59507C18.6302 7.32952 18.1673 7.32952 17.8485 7.59507L3.9825 19.1501L2.56909 17.4507L18.3988 4.2594L34.2284 17.4507L32.815 19.1501Z" fill="#FA6444"/>
<path fill-rule="evenodd" clip-rule="evenodd" d="M35.7332 41.7225C40.5626 41.7225 44.5016 37.7836 44.5016 32.9542C44.0531 21.3392 27.4116 21.3424 26.9648 32.9543C26.9648 37.7837 30.9038 41.7225 35.7332 41.7225Z" fill="#FA6444"/>
<path fill-rule="evenodd" clip-rule="evenodd" d="M18.3991 18.6177C19.6065 18.6177 20.5912 17.6329 20.5912 16.4256C20.4791 13.5218 16.3187 13.5226 16.207 16.4256C16.207 17.6329 17.1918 18.6177 18.3991 18.6177Z" fill="#FA6444"/>
<path d="M38.352 28.4121C37.9409 28.1749 37.4154 28.3156 37.1781 28.7267L32.7939 36.3204C32.2595 37.3221 33.6768 38.147 34.2824 37.1797L38.6666 29.5861C38.9039 29.175 38.7631 28.6494 38.352 28.4121Z" fill="white"/>
<path d="M33.5378 30.0156C34.6769 29.9733 34.676 28.3388 33.5378 28.2969H33.5372C32.3981 28.3393 32.3998 29.9739 33.5378 30.0156Z" fill="white"/>
<path d="M37.9222 35.8906H37.9216C37.4471 35.8906 37.0625 36.2755 37.0625 36.75C37.1048 37.8885 38.7396 37.8886 38.7816 36.75C38.7816 36.2755 38.3968 35.8906 37.9222 35.8906Z" fill="white"/>
</g>
<defs>
<clipPath id="clip0_1275_719">
<rect width="44" height="44" fill="white" transform="translate(0.5)"/>
</clipPath>
</defs>
</svg>
