<svg width="44" height="44" viewBox="0 0 44 44" fill="none" xmlns="http://www.w3.org/2000/svg">
<g clip-path="url(#clip0_1275_2495)">
<path d="M43.1406 37.5548H42.2812V10.0549C42.2812 8.63335 41.1246 7.47681 39.703 7.47681H33.1718C32.0328 7.51909 32.0337 9.15362 33.1718 9.19555H39.703C40.1769 9.19555 40.5624 9.58107 40.5624 10.0549V37.5548H27.1562C26.6817 37.5548 26.2968 37.9396 26.2968 38.4142H17.7031C17.7031 37.9396 17.3183 37.5548 16.8437 37.5548H3.43749V10.0549C3.43749 9.58107 3.82301 9.19555 4.29687 9.19555H10.8281C11.9671 9.15327 11.9663 7.51874 10.8281 7.47681H4.29687C2.87529 7.47681 1.71875 8.63335 1.71875 10.0549V37.5548H0.859373C0.384827 37.5548 0 37.9396 0 38.4142V40.9923C0 42.4139 1.15646 43.5704 2.57803 43.5704H41.4219C42.8435 43.5704 44 42.4139 44 40.9923V38.4142C44 37.9396 43.6152 37.5548 43.1406 37.5548ZM42.2813 40.9923C42.2813 41.4661 41.8957 41.8517 41.4219 41.8517H2.57803C2.10418 41.8517 1.71875 41.4661 1.71875 40.9923V39.2735H16.215C16.5127 39.7869 17.0683 40.1329 17.7031 40.1329H26.2968C26.9317 40.1329 27.4873 39.7869 27.7849 39.2735H42.2813V40.9923Z" fill="#141339"/>
<path fill-rule="evenodd" clip-rule="evenodd" d="M9.96875 2.14844V34.9766H34.0313V2.14844L31.6251 0.429688L29.2188 2.14844L26.8126 0.429688L24.4063 2.14844L22.0001 0.429688L19.5938 2.14844L17.1875 0.429688L14.7813 2.14844L12.375 0.429688L9.96875 2.14844Z" fill="#F6AA32"/>
<path d="M16.8928 11.2305V5.72647H17.9888V11.2305H16.8928ZM15.1008 6.57447V5.60647H19.7808V6.57447H15.1008ZM20.5321 11.2305V5.60647H21.6201V11.2305H20.5321ZM21.3321 11.2305V10.2705H24.4441V11.2305H21.3321ZM21.3321 8.82247V7.89447H24.1641V8.82247H21.3321ZM21.3321 6.56647V5.60647H24.4041V6.56647H21.3321ZM27.851 11.3105C27.4403 11.3105 27.059 11.2385 26.707 11.0945C26.355 10.9451 26.0457 10.7398 25.779 10.4785C25.5177 10.2118 25.315 9.90247 25.171 9.55047C25.0323 9.19847 24.963 8.8198 24.963 8.41447C24.963 8.00914 25.0323 7.63047 25.171 7.27847C25.315 6.92647 25.5177 6.6198 25.779 6.35847C26.0457 6.09714 26.3523 5.8918 26.699 5.74247C27.051 5.59314 27.435 5.51847 27.851 5.51847C28.299 5.51847 28.6937 5.59314 29.035 5.74247C29.3763 5.88647 29.6777 6.08647 29.939 6.34247L29.203 7.07847C29.0483 6.9078 28.859 6.77447 28.635 6.67847C28.411 6.58247 28.1497 6.53447 27.851 6.53447C27.5897 6.53447 27.3497 6.5798 27.131 6.67047C26.9177 6.7558 26.731 6.8838 26.571 7.05447C26.411 7.2198 26.2883 7.4198 26.203 7.65447C26.1177 7.8838 26.075 8.13714 26.075 8.41447C26.075 8.69714 26.1177 8.95314 26.203 9.18247C26.2883 9.4118 26.411 9.6118 26.571 9.78247C26.731 9.9478 26.9177 10.0758 27.131 10.1665C27.3497 10.2571 27.5897 10.3025 27.851 10.3025C28.1657 10.3025 28.435 10.2545 28.659 10.1585C28.8883 10.0625 29.0803 9.92647 29.235 9.75047L29.971 10.4865C29.7097 10.7478 29.4057 10.9505 29.059 11.0945C28.7123 11.2385 28.3097 11.3105 27.851 11.3105Z" fill="#081120"/>
<path d="M40.8846 34.1172H3.11468C1.97567 34.1595 1.97653 35.794 3.11468 35.8359H40.8846C42.0237 35.7937 42.0228 34.1591 40.8846 34.1172Z" fill="#141339"/>
<path d="M14.6466 18.6484H29.3526C30.4916 18.6062 30.4907 16.9716 29.3526 16.9297H14.6466C13.5077 16.9721 13.5085 18.6066 14.6466 18.6484Z" fill="#141339"/>
<path d="M14.6466 22.0859H29.3526C30.4916 22.0437 30.4907 20.4091 29.3526 20.3672H14.6466C13.5077 20.4096 13.5085 22.0441 14.6466 22.0859Z" fill="#141339"/>
<path d="M14.6466 25.5234H21.9996C23.1386 25.4812 23.1377 23.8466 21.9996 23.8047H14.6466C13.5077 23.8471 13.5085 25.4816 14.6466 25.5234Z" fill="#141339"/>
<path d="M14.6466 28.9609H29.3526C30.4916 28.9187 30.4907 27.2841 29.3526 27.2422H14.6466C13.5077 27.2846 13.5085 28.9191 14.6466 28.9609Z" fill="#141339"/>
<path d="M14.6466 32.3984H29.3526C30.4916 32.3562 30.4907 30.7216 29.3526 30.6797H14.6466C13.5077 30.7221 13.5085 32.3566 14.6466 32.3984Z" fill="#141339"/>
</g>
<defs>
<clipPath id="clip0_1275_2495">
<rect width="44" height="44" fill="white"/>
</clipPath>
</defs>
</svg>
