<svg width="52" height="52" viewBox="0 0 52 52" fill="none" xmlns="http://www.w3.org/2000/svg">
<g clip-path="url(#clip0_1275_3275)">
<path d="M44.9594 13.4141H37.4796C36.9188 13.4141 36.464 13.8688 36.464 14.4297V32.9022C36.514 34.2483 38.4458 34.2473 38.4952 32.9022V15.4453H43.9437V32.9022C43.9936 34.2483 45.9254 34.2473 45.9749 32.9022V14.4297C45.975 13.8689 45.5202 13.4141 44.9594 13.4141Z" fill="#2A9134"/>
<path d="M32.8047 21.7503H25.325C24.7642 21.7503 24.3094 22.205 24.3094 22.7659V38.4227H21.6658V14.4297C21.6658 13.8688 21.211 13.4141 20.6502 13.4141H13.1704C12.6096 13.4141 12.1548 13.8688 12.1548 14.4297V38.4227H9.51102V22.7659C9.51102 22.205 9.05623 21.7503 8.4954 21.7503H1.01562C0.454797 21.7503 0 22.205 0 22.7659V39.4383C0 39.9993 0.454797 40.454 1.01562 40.454H25.3147C25.9611 40.4628 26.4586 39.8299 26.3032 39.2044C26.3275 39.1173 26.3406 39.0254 26.3406 38.9304V23.7816H31.7891V31.3479C31.839 32.694 33.7709 32.693 33.8203 31.3479V22.7659C33.8203 22.205 33.3655 21.7503 32.8047 21.7503ZM7.47977 38.4227H2.03125V23.7816H7.47977V38.4227ZM14.1859 15.4453H19.6345V38.4227H14.1859V15.4453Z" fill="#2A9134"/>
<path d="M4.75694 13.6264C4.94838 13.6264 5.14196 13.5724 5.31381 13.4594L16.9105 5.8363L28.5073 13.4594C28.8459 13.6819 29.2845 13.6819 29.6231 13.4594L39.7288 6.81648L39.3152 8.81645C39.0876 10.1382 40.9836 10.5384 41.3044 9.22778L42.2144 4.82667C42.2689 4.56291 42.2165 4.28818 42.0685 4.06312C41.9205 3.83806 41.6892 3.68094 41.4254 3.6264L37.0242 2.7164C36.4758 2.60336 35.9376 2.95599 35.824 3.50534C35.7104 4.05469 36.0636 4.59206 36.613 4.7056L38.613 5.11917L29.0651 11.3954L17.4684 3.77224C17.1298 3.54972 16.6912 3.54972 16.3526 3.77224L4.19804 11.762C3.72933 12.0701 3.59923 12.6998 3.90727 13.1686C4.10237 13.4654 4.42635 13.6264 4.75694 13.6264Z" fill="#2A9134"/>
<path fill-rule="evenodd" clip-rule="evenodd" d="M26.3819 31.3575H49.9276C51.0675 31.3575 52.0002 32.2903 52.0002 33.43V47.2342C52.0002 48.374 51.0674 49.3067 49.9276 49.3067H26.3819C25.2421 49.3067 24.3094 48.374 24.3094 47.2342V33.43C24.3094 32.2901 25.242 31.3575 26.3819 31.3575Z" fill="#2A9134"/>
<path d="M31.0579 44V42.89H32.8879C33.2146 42.89 33.4679 42.79 33.6479 42.59C33.8346 42.39 33.9279 42.1533 33.9279 41.88C33.9279 41.6933 33.8879 41.5233 33.8079 41.37C33.7279 41.2167 33.6079 41.0967 33.4479 41.01C33.2946 40.9167 33.1079 40.87 32.8879 40.87H31.0579V39.77H32.7379C33.0179 39.77 33.2412 39.7 33.4079 39.56C33.5812 39.42 33.6679 39.21 33.6679 38.93C33.6679 38.6433 33.5812 38.43 33.4079 38.29C33.2412 38.15 33.0179 38.08 32.7379 38.08H31.0579V36.97H32.8979C33.3646 36.97 33.7546 37.0567 34.0679 37.23C34.3879 37.3967 34.6279 37.62 34.7879 37.9C34.9479 38.1733 35.0279 38.4733 35.0279 38.8C35.0279 39.2 34.9046 39.5467 34.6579 39.84C34.4179 40.1267 34.0646 40.34 33.5979 40.48L33.6579 40.04C34.1779 40.1867 34.5779 40.43 34.8579 40.77C35.1446 41.1033 35.2879 41.5067 35.2879 41.98C35.2879 42.3533 35.1946 42.6933 35.0079 43C34.8279 43.3 34.5612 43.5433 34.2079 43.73C33.8612 43.91 33.4379 44 32.9379 44H31.0579ZM30.0579 44V36.97H31.4079V44H30.0579ZM38.2698 44.1C37.7031 44.1 37.2164 44.0033 36.8098 43.81C36.4098 43.6167 36.0464 43.3267 35.7198 42.94L36.6198 42.04C36.8264 42.3133 37.0664 42.5267 37.3398 42.68C37.6131 42.8267 37.9464 42.9 38.3398 42.9C38.6931 42.9 38.9731 42.83 39.1798 42.69C39.3931 42.55 39.4998 42.3567 39.4998 42.11C39.4998 41.8967 39.4398 41.7233 39.3198 41.59C39.1998 41.4567 39.0398 41.3433 38.8398 41.25C38.6464 41.1567 38.4298 41.0733 38.1898 41C37.9564 40.92 37.7198 40.83 37.4798 40.73C37.2464 40.63 37.0298 40.5067 36.8298 40.36C36.6364 40.2067 36.4798 40.0133 36.3598 39.78C36.2398 39.54 36.1798 39.24 36.1798 38.88C36.1798 38.4533 36.2831 38.09 36.4898 37.79C36.6964 37.49 36.9798 37.26 37.3398 37.1C37.6998 36.94 38.1064 36.86 38.5598 36.86C39.0398 36.86 39.4731 36.95 39.8598 37.13C40.2464 37.31 40.5631 37.5433 40.8098 37.83L39.9098 38.73C39.7031 38.5033 39.4898 38.3367 39.2698 38.23C39.0564 38.1233 38.8131 38.07 38.5398 38.07C38.2264 38.07 37.9798 38.13 37.7998 38.25C37.6198 38.37 37.5298 38.5433 37.5298 38.77C37.5298 38.9633 37.5898 39.12 37.7098 39.24C37.8298 39.36 37.9864 39.4633 38.1798 39.55C38.3798 39.6367 38.5964 39.72 38.8298 39.8C39.0698 39.88 39.3064 39.97 39.5398 40.07C39.7798 40.17 39.9964 40.3 40.1898 40.46C40.3898 40.62 40.5498 40.8267 40.6698 41.08C40.7898 41.3267 40.8498 41.6333 40.8498 42C40.8498 42.6533 40.6198 43.1667 40.1598 43.54C39.6998 43.9133 39.0698 44.1 38.2698 44.1ZM43.7873 44.1C43.2207 44.1 42.734 44.0033 42.3273 43.81C41.9273 43.6167 41.564 43.3267 41.2373 42.94L42.1373 42.04C42.344 42.3133 42.584 42.5267 42.8573 42.68C43.1307 42.8267 43.464 42.9 43.8573 42.9C44.2107 42.9 44.4907 42.83 44.6973 42.69C44.9107 42.55 45.0173 42.3567 45.0173 42.11C45.0173 41.8967 44.9573 41.7233 44.8373 41.59C44.7173 41.4567 44.5573 41.3433 44.3573 41.25C44.164 41.1567 43.9473 41.0733 43.7073 41C43.474 40.92 43.2373 40.83 42.9973 40.73C42.764 40.63 42.5473 40.5067 42.3473 40.36C42.154 40.2067 41.9973 40.0133 41.8773 39.78C41.7573 39.54 41.6973 39.24 41.6973 38.88C41.6973 38.4533 41.8007 38.09 42.0073 37.79C42.214 37.49 42.4973 37.26 42.8573 37.1C43.2173 36.94 43.624 36.86 44.0773 36.86C44.5573 36.86 44.9907 36.95 45.3773 37.13C45.764 37.31 46.0807 37.5433 46.3273 37.83L45.4273 38.73C45.2207 38.5033 45.0073 38.3367 44.7873 38.23C44.574 38.1233 44.3307 38.07 44.0573 38.07C43.744 38.07 43.4973 38.13 43.3173 38.25C43.1373 38.37 43.0473 38.5433 43.0473 38.77C43.0473 38.9633 43.1073 39.12 43.2273 39.24C43.3473 39.36 43.504 39.4633 43.6973 39.55C43.8973 39.6367 44.114 39.72 44.3473 39.8C44.5873 39.88 44.824 39.97 45.0573 40.07C45.2973 40.17 45.514 40.3 45.7073 40.46C45.9073 40.62 46.0673 40.8267 46.1873 41.08C46.3073 41.3267 46.3673 41.6333 46.3673 42C46.3673 42.6533 46.1373 43.1667 45.6773 43.54C45.2173 43.9133 44.5873 44.1 43.7873 44.1Z" fill="white"/>
</g>
<defs>
<clipPath id="clip0_1275_3275">
<rect width="52" height="52" fill="white"/>
</clipPath>
</defs>
</svg>
