<svg width="53" height="52" viewBox="0 0 53 52" fill="none" xmlns="http://www.w3.org/2000/svg">
<g clip-path="url(#clip0_1275_3255)">
<path fill-rule="evenodd" clip-rule="evenodd" d="M28.4757 31.5635L35.5983 36.9488L35.6674 36.9089L37.7735 35.3165V14.422C35.5299 14.422 33.711 12.6032 33.711 10.3595H24.5704C24.5704 12.6032 22.7515 14.422 20.5079 14.422V34.6002L24.5243 31.5635C25.1164 31.1164 25.8112 30.9009 26.5 30.9015C27.1889 30.9009 27.8836 31.1164 28.4757 31.5635Z" fill="#2A9134"/>
<path d="M45.9389 21.6609L42.8516 19.5299V6.29705C42.8516 5.73623 42.3968 5.28143 41.836 5.28143H37.5702V1.01562C37.5702 0.454795 37.1154 0 36.5546 0H11.1641C10.6032 0 10.1484 0.454795 10.1484 1.01562V19.5299L7.06115 21.6609C5.49324 22.7431 5.172 23.9982 5.172 25.5497V48.5866C5.172 50.4687 6.70325 51.9999 8.5853 51.9999H44.4147C46.2967 51.9999 47.828 50.4687 47.828 48.5866V25.5497C47.8281 23.9982 47.5068 22.7432 45.9389 21.6609ZM45.7968 30.5235V43.3864L37.2905 36.9549L45.7968 30.5235ZM44.7851 23.3325C45.644 23.9254 45.7968 24.4289 45.7968 25.5497V27.977L42.8516 30.2039V21.9979L44.7851 23.3325ZM40.8204 31.7396L35.6065 35.6817L29.0877 30.753C28.3364 30.1857 27.4427 29.8859 26.5046 29.8859H26.497C25.5573 29.8859 24.6635 30.1857 23.9117 30.7534L17.461 35.6307V7.31267H40.8203V31.7396H40.8204ZM7.20324 30.5235L15.7096 36.955L7.20324 43.3865V30.5235ZM35.539 2.03124V5.28143H16.4455C15.8847 5.28143 15.4299 5.73623 15.4299 6.29705V34.1971L12.1797 31.7396V2.03124H35.539ZM8.215 23.3325L10.1484 21.998V30.2038L7.20324 27.9769V25.5497C7.20324 24.4289 7.35609 23.9254 8.215 23.3325ZM44.4148 49.9688H8.5853C7.82317 49.9688 7.20324 49.3488 7.20324 48.5867V45.9331L25.1364 32.374C25.5323 32.0751 26.0027 31.9171 26.4989 31.9171H26.5029C26.9972 31.9171 27.4678 32.0751 27.8632 32.3736L45.7968 45.933V48.5867C45.7968 49.3487 45.1768 49.9688 44.4148 49.9688Z" fill="#2A9134"/>
<path d="M24.5707 26.6101H25.0426C25.3204 27.1625 25.7898 27.6218 26.4045 27.8764C26.7376 28.0143 27.0832 28.0797 27.4231 28.0797C28.4715 28.0796 29.4683 27.4583 29.8939 26.431L30.2648 25.5355C30.3294 25.3794 30.4526 25.2572 30.6115 25.1913C30.7703 25.1256 30.9438 25.1247 31.1003 25.1894C31.4204 25.3221 31.5789 25.7046 31.4464 26.0247L31.2608 26.4725C31.0461 26.9906 31.2921 27.5848 31.8103 27.7995C32.3287 28.0143 32.9226 27.7682 33.1373 27.25L33.323 26.802C33.3493 26.7385 33.3729 26.6745 33.394 26.6101H33.7113C35.0574 26.5601 35.0564 24.6284 33.7113 24.5788H33.2395C32.9616 24.0264 32.4923 23.5673 31.8776 23.3127C30.5171 22.7492 28.9517 23.3975 28.3882 24.758L28.0173 25.6536C27.8847 25.9738 27.5022 26.132 27.1819 25.9995C26.8617 25.8669 26.7032 25.4844 26.8357 25.1643L27.0213 24.7165C27.236 24.1983 26.99 23.6041 26.4718 23.3894C25.9537 23.1748 25.3595 23.4208 25.1448 23.9389L24.9592 24.3869C24.9329 24.4504 24.9092 24.5145 24.8882 24.5787H24.5709C23.2246 24.6288 23.2256 26.5605 24.5707 26.6101Z" fill="white"/>
<path d="M29.1407 19.9447C29.7016 19.9447 30.1564 19.49 30.1564 18.9291V16.8979C30.1064 15.5518 28.1747 15.5528 28.1251 16.8979V18.9291C28.1251 19.49 28.5798 19.9447 29.1407 19.9447Z" fill="#2A9134"/>
</g>
<defs>
<clipPath id="clip0_1275_3255">
<rect width="52" height="52" fill="white" transform="translate(0.5)"/>
</clipPath>
</defs>
</svg>
