<svg width="40" height="40" viewBox="0 0 40 40" fill="none" xmlns="http://www.w3.org/2000/svg">
<g clip-path="url(#clip0_1275_1423)">
<path d="M8.59418 30.533H8.59364C8.16223 30.533 7.81262 30.8827 7.81262 31.3142C7.85106 32.3492 9.33723 32.3493 9.37543 31.3142C9.37543 30.8827 9.02559 30.533 8.59418 30.533Z" fill="#5957E5"/>
<path d="M31.4067 30.533H31.4061C30.9747 30.533 30.6251 30.8827 30.6251 31.3142C30.6636 32.3492 32.1497 32.3493 32.1879 31.3142C32.1879 30.8827 31.8381 30.533 31.4067 30.533Z" fill="#5957E5"/>
<path d="M39.2188 27.4079V21.9392C39.2188 21.5077 38.869 21.1579 38.4376 21.1579H31.7786L26.9349 15.1966C26.7866 15.014 26.5638 14.908 26.3285 14.908H13.974C12.9385 14.9464 12.9393 16.4324 13.974 16.4705H16.5629V21.1579H2.89839L4.91268 17.577C5.12424 17.2009 4.99081 16.7246 4.61479 16.513C4.23886 16.3015 3.76245 16.4349 3.55089 16.8109L0.881681 21.5561C0.8159 21.6731 0.781369 21.805 0.781369 21.9392V27.4079C0.349964 27.4079 0.00012207 27.7577 0.00012207 28.1892V31.3141C0.00012207 31.7456 0.349964 32.0954 0.781369 32.0954H3.9712C4.93667 37.2715 12.2524 37.2678 13.2159 32.0954H26.7844C27.7499 37.2715 35.0656 37.2678 36.0291 32.0954H39.219C39.6504 32.0954 40.0002 31.7456 40.0002 31.3141V28.1892C40.0001 27.7577 39.6502 27.4079 39.2188 27.4079ZM21.2504 16.4705H25.9567L29.7653 21.1579H21.2504V16.4705ZM2.34379 25.8454H3.51573C4.5512 25.807 4.55042 24.321 3.51573 24.2829H2.34379V22.7204H17.3442C17.7756 22.7204 18.1254 22.3707 18.1254 21.9392V16.4705H19.6879V21.9392C19.6879 22.3707 20.0378 22.7204 20.4692 22.7204H37.6563V24.2829H36.4844C35.449 24.3214 35.4498 25.8074 36.4844 25.8454H37.6563V27.4079H33.9952C32.5355 26.378 30.2777 26.378 28.818 27.4079H11.182C9.72227 26.378 7.46455 26.378 6.00479 27.4079H2.34379V25.8454ZM26.7842 30.5329H13.2158C13.1213 29.9723 12.927 29.4452 12.6518 28.9704H27.3481C27.0731 29.4451 26.8787 29.9723 26.7842 30.5329ZM1.56254 28.9704H4.53503C4.25987 29.4451 4.0655 29.9722 3.97104 30.5329H1.56254V28.9704ZM8.59345 34.4391C6.87033 34.4391 5.46846 33.0373 5.46846 31.3141C5.62557 27.1742 11.562 27.1753 11.7184 31.3142C11.7184 33.0373 10.3166 34.4391 8.59345 34.4391ZM31.4066 34.4391C29.6835 34.4391 28.2817 33.0373 28.2817 31.3141C28.4388 27.1742 34.3751 27.1753 34.5316 31.3142C34.5316 33.0373 33.1298 34.4391 31.4066 34.4391ZM38.4376 30.5329H36.029C35.9345 29.9723 35.7402 29.4452 35.465 28.9704H38.4375V30.5329H38.4376Z" fill="#5957E5"/>
<path fill-rule="evenodd" clip-rule="evenodd" d="M8.59375 19.5961C12.8967 19.5961 16.4062 16.0866 16.4062 11.7837C16.0066 1.43494 1.1793 1.43775 0.78125 11.7838C0.78125 16.0866 4.29078 19.5961 8.59375 19.5961Z" fill="#5957E5"/>
<path d="M10.9378 7.72571C10.5639 7.50985 10.0863 7.63797 9.87057 8.01165L5.96432 14.7775C5.74854 15.1512 5.87659 15.629 6.25026 15.8447C6.61729 16.0585 7.10057 15.9358 7.31745 15.5588L11.2237 8.7929C11.4395 8.41922 11.3114 7.94141 10.9378 7.72571Z" fill="white"/>
<path d="M6.64099 9.18335C7.67646 9.14491 7.67568 7.6589 6.64099 7.62085H6.64044C5.6049 7.65944 5.6063 9.14538 6.64099 9.18335Z" fill="white"/>
<path d="M10.5473 14.3865H10.5467C10.1153 14.3865 9.76575 14.7362 9.76575 15.1677C9.80418 16.2027 11.2904 16.2028 11.3286 15.1677C11.3286 14.7362 10.9787 14.3865 10.5473 14.3865Z" fill="white"/>
</g>
<defs>
<clipPath id="clip0_1275_1423">
<rect width="40" height="40" fill="white"/>
</clipPath>
</defs>
</svg>
