<svg width="40" height="40" viewBox="0 0 40 40" fill="none" xmlns="http://www.w3.org/2000/svg">
<g clip-path="url(#clip0_1275_1404)">
<path d="M39.2188 34.1406H38.4374V9.14074C38.4374 7.8484 37.386 6.797 36.0937 6.797H30.1562C29.1207 6.83543 29.1215 8.32137 30.1562 8.35949H36.0937C36.5245 8.35949 36.8749 8.70996 36.8749 9.14074V34.1406H24.6875C24.256 34.1406 23.9062 34.4905 23.9062 34.9219H16.0937C16.0937 34.4905 15.7439 34.1406 15.3125 34.1406H3.12499V9.14074C3.12499 8.70996 3.47546 8.35949 3.90624 8.35949H9.84373C10.8792 8.32106 10.8784 6.83512 9.84373 6.797H3.90624C2.6139 6.797 1.5625 7.8484 1.5625 9.14074V34.1406H0.781248C0.349843 34.1406 0 34.4905 0 34.9219V37.2656C0 38.558 1.05133 39.6094 2.34367 39.6094H37.6563C38.9486 39.6094 40 38.558 40 37.2656V34.9219C40 34.4905 39.6502 34.1406 39.2188 34.1406ZM38.4375 37.2656C38.4375 37.6964 38.087 38.0469 37.6563 38.0469H2.34367C1.91289 38.0469 1.5625 37.6964 1.5625 37.2656V35.7031H14.7409C15.0115 36.1698 15.5166 36.4844 16.0937 36.4844H23.9062C24.4834 36.4844 24.9885 36.1698 25.259 35.7031H38.4375V37.2656Z" fill="#5957E5"/>
<path fill-rule="evenodd" clip-rule="evenodd" d="M9.0625 1.95312V31.7969H30.9376V1.95312L28.7501 0.390625L26.5626 1.95312L24.3751 0.390625L22.1875 1.95312L20.0001 0.390625L17.8125 1.95312L15.625 0.390625L13.4375 1.95312L11.25 0.390625L9.0625 1.95312Z" fill="#5957E5"/>
<path d="M14.5715 10.8457V5.3417H15.6675V10.8457H14.5715ZM12.7795 6.1897V5.2217H17.4595V6.1897H12.7795ZM18.2108 10.8457V5.2217H19.2988V10.8457H18.2108ZM19.0108 10.8457V9.8857H22.1228V10.8457H19.0108ZM19.0108 8.4377V7.5097H21.8428V8.4377H19.0108ZM19.0108 6.1817V5.2217H22.0828V6.1817H19.0108ZM25.5297 10.9257C25.119 10.9257 24.7377 10.8537 24.3857 10.7097C24.0337 10.5604 23.7244 10.355 23.4577 10.0937C23.1964 9.82704 22.9937 9.5177 22.8497 9.1657C22.711 8.8137 22.6417 8.43504 22.6417 8.0297C22.6417 7.62437 22.711 7.2457 22.8497 6.8937C22.9937 6.5417 23.1964 6.23504 23.4577 5.9737C23.7244 5.71237 24.031 5.50704 24.3777 5.3577C24.7297 5.20837 25.1137 5.1337 25.5297 5.1337C25.9777 5.1337 26.3724 5.20837 26.7137 5.3577C27.055 5.5017 27.3564 5.7017 27.6177 5.9577L26.8817 6.6937C26.727 6.52304 26.5377 6.3897 26.3137 6.2937C26.0897 6.1977 25.8284 6.1497 25.5297 6.1497C25.2684 6.1497 25.0284 6.19504 24.8097 6.2857C24.5964 6.37104 24.4097 6.49904 24.2497 6.6697C24.0897 6.83504 23.967 7.03504 23.8817 7.2697C23.7964 7.49904 23.7537 7.75237 23.7537 8.0297C23.7537 8.31237 23.7964 8.56837 23.8817 8.7977C23.967 9.02704 24.0897 9.22704 24.2497 9.3977C24.4097 9.56304 24.5964 9.69104 24.8097 9.7817C25.0284 9.87237 25.2684 9.9177 25.5297 9.9177C25.8444 9.9177 26.1137 9.8697 26.3377 9.7737C26.567 9.6777 26.759 9.5417 26.9137 9.3657L27.6497 10.1017C27.3884 10.363 27.0844 10.5657 26.7377 10.7097C26.391 10.8537 25.9884 10.9257 25.5297 10.9257Z" fill="white"/>
<path d="M37.1683 31.0156H2.83197C1.7965 31.0541 1.79729 32.54 2.83197 32.5781H37.1683C38.2038 32.5397 38.203 31.0538 37.1683 31.0156Z" fill="#5957E5"/>
<path d="M13.3156 16.9531H26.6846C27.7201 16.9147 27.7193 15.4288 26.6846 15.3906H13.3156C12.2802 15.4291 12.2809 16.9151 13.3156 16.9531Z" fill="white"/>
<path d="M13.3156 20.0781H26.6846C27.7201 20.0397 27.7193 18.5538 26.6846 18.5156H13.3156C12.2802 18.5541 12.2809 20.0401 13.3156 20.0781Z" fill="white"/>
<path d="M13.3156 23.2031H20.0001C21.0356 23.1647 21.0348 21.6788 20.0001 21.6406H13.3156C12.2802 21.6791 12.2809 23.1651 13.3156 23.2031Z" fill="white"/>
<path d="M13.3156 26.3281H26.6846C27.7201 26.2897 27.7193 24.8038 26.6846 24.7656H13.3156C12.2802 24.8041 12.2809 26.2901 13.3156 26.3281Z" fill="white"/>
<path d="M13.3156 29.4531H26.6846C27.7201 29.4147 27.7193 27.9288 26.6846 27.8906H13.3156C12.2802 27.9291 12.2809 29.4151 13.3156 29.4531Z" fill="white"/>
</g>
<defs>
<clipPath id="clip0_1275_1404">
<rect width="40" height="40" fill="white"/>
</clipPath>
</defs>
</svg>
