<svg width="40" height="40" viewBox="0 0 40 40" fill="none" xmlns="http://www.w3.org/2000/svg">
<path d="M34.5847 10.3203H28.8311C28.3996 10.3203 28.0498 10.6701 28.0498 11.1016V25.3112C28.0882 26.3466 29.5743 26.3459 29.6123 25.3112V11.8828H33.8034V25.3112C33.8418 26.3466 35.3279 26.3459 35.3659 25.3112V11.1016C35.366 10.6702 35.0161 10.3203 34.5847 10.3203Z" fill="#5957E5"/>
<path d="M25.2344 16.7328H19.4808C19.0494 16.7328 18.6995 17.0826 18.6995 17.5141V29.5577H16.666V11.1016C16.666 10.6701 16.3162 10.3203 15.8848 10.3203H10.1311C9.69969 10.3203 9.34984 10.6701 9.34984 11.1016V29.5577H7.31617V17.5141C7.31617 17.0826 6.96633 16.7328 6.53492 16.7328H0.78125C0.349844 16.7328 0 17.0826 0 17.5141V30.339C0 30.7705 0.349844 31.1202 0.78125 31.1202H19.4728C19.9701 31.127 20.3527 30.6402 20.2332 30.1591C20.252 30.092 20.262 30.0213 20.262 29.9483V18.2953H24.4531V24.1155C24.4916 25.151 25.9776 25.1502 26.0156 24.1155V17.5141C26.0156 17.0826 25.6658 16.7328 25.2344 16.7328ZM5.75367 29.5577H1.5625V18.2953H5.75367V29.5577ZM10.9123 11.8828H15.1034V29.5577H10.9123V11.8828Z" fill="#5957E5"/>
<path d="M3.65806 10.4828C3.80532 10.4828 3.95423 10.4412 4.08642 10.3543L13.007 4.49036L21.9276 10.3543C22.1881 10.5254 22.5254 10.5254 22.7859 10.3543L30.5595 5.24435L30.2413 6.78278C30.0663 7.7995 31.5247 8.10739 31.7715 7.09919L32.4715 3.71372C32.5134 3.51083 32.4731 3.2995 32.3592 3.12638C32.2454 2.95325 32.0675 2.83239 31.8645 2.79044L28.479 2.09044C28.0572 2.00349 27.6432 2.27474 27.5558 2.69732C27.4684 3.11989 27.7401 3.53325 28.1627 3.6206L29.7012 3.93872L22.3567 8.76661L13.4361 2.90263C13.1756 2.73146 12.8383 2.73146 12.5778 2.90263L3.22814 9.04857C2.86759 9.2856 2.76751 9.76997 3.00446 10.1306C3.15454 10.3589 3.40376 10.4828 3.65806 10.4828Z" fill="#5957E5"/>
<path fill-rule="evenodd" clip-rule="evenodd" d="M20.2934 24.1211H38.4055C39.2823 24.1211 39.9998 24.8386 39.9998 25.7153V36.3339C39.9998 37.2107 39.2823 37.9281 38.4055 37.9281H20.2934C19.4166 37.9281 18.6992 37.2107 18.6992 36.3339V25.7153C18.6992 24.8384 19.4166 24.1211 20.2934 24.1211Z" fill="#5957E5"/>
<path d="M23.6621 33.832V32.944H25.1261C25.3875 32.944 25.5901 32.864 25.7341 32.704C25.8835 32.544 25.9581 32.3547 25.9581 32.136C25.9581 31.9867 25.9261 31.8507 25.8621 31.728C25.7981 31.6054 25.7021 31.5094 25.5741 31.44C25.4515 31.3654 25.3021 31.328 25.1261 31.328H23.6621V30.448H25.0061C25.2301 30.448 25.4088 30.392 25.5421 30.28C25.6808 30.168 25.7501 30 25.7501 29.776C25.7501 29.5467 25.6808 29.376 25.5421 29.264C25.4088 29.152 25.2301 29.096 25.0061 29.096H23.6621V28.208H25.1341C25.5075 28.208 25.8195 28.2774 26.0701 28.416C26.3261 28.5494 26.5181 28.728 26.6461 28.952C26.7741 29.1707 26.8381 29.4107 26.8381 29.672C26.8381 29.992 26.7395 30.2694 26.5421 30.504C26.3501 30.7334 26.0675 30.904 25.6941 31.016L25.7421 30.664C26.1581 30.7814 26.4781 30.976 26.7021 31.248C26.9315 31.5147 27.0461 31.8374 27.0461 32.216C27.0461 32.5147 26.9715 32.7867 26.8221 33.032C26.6781 33.272 26.4648 33.4667 26.1821 33.616C25.9048 33.76 25.5661 33.832 25.1661 33.832H23.6621ZM22.8621 33.832V28.208H23.9421V33.832H22.8621ZM29.4316 33.912C28.9783 33.912 28.589 33.8347 28.2636 33.68C27.9436 33.5254 27.653 33.2934 27.3916 32.984L28.1116 32.264C28.277 32.4827 28.469 32.6534 28.6876 32.776C28.9063 32.8934 29.173 32.952 29.4876 32.952C29.7703 32.952 29.9943 32.896 30.1596 32.784C30.3303 32.672 30.4156 32.5174 30.4156 32.32C30.4156 32.1494 30.3676 32.0107 30.2716 31.904C30.1756 31.7974 30.0476 31.7067 29.8876 31.632C29.733 31.5574 29.5596 31.4907 29.3676 31.432C29.181 31.368 28.9916 31.296 28.7996 31.216C28.613 31.136 28.4396 31.0374 28.2796 30.92C28.125 30.7974 27.9996 30.6427 27.9036 30.456C27.8076 30.264 27.7596 30.024 27.7596 29.736C27.7596 29.3947 27.8423 29.104 28.0076 28.864C28.173 28.624 28.3996 28.44 28.6876 28.312C28.9756 28.184 29.301 28.12 29.6636 28.12C30.0476 28.12 30.3943 28.192 30.7036 28.336C31.013 28.48 31.2663 28.6667 31.4636 28.896L30.7436 29.616C30.5783 29.4347 30.4076 29.3014 30.2316 29.216C30.061 29.1307 29.8663 29.088 29.6476 29.088C29.397 29.088 29.1996 29.136 29.0556 29.232C28.9116 29.328 28.8396 29.4667 28.8396 29.648C28.8396 29.8027 28.8876 29.928 28.9836 30.024C29.0796 30.12 29.205 30.2027 29.3596 30.272C29.5196 30.3414 29.693 30.408 29.8796 30.472C30.0716 30.536 30.261 30.608 30.4476 30.688C30.6396 30.768 30.813 30.872 30.9676 31C31.1276 31.128 31.2556 31.2934 31.3516 31.496C31.4476 31.6934 31.4956 31.9387 31.4956 32.232C31.4956 32.7547 31.3116 33.1654 30.9436 33.464C30.5756 33.7627 30.0716 33.912 29.4316 33.912ZM33.8457 33.912C33.3924 33.912 33.003 33.8347 32.6777 33.68C32.3577 33.5254 32.067 33.2934 31.8057 32.984L32.5257 32.264C32.691 32.4827 32.883 32.6534 33.1017 32.776C33.3204 32.8934 33.587 32.952 33.9017 32.952C34.1844 32.952 34.4084 32.896 34.5737 32.784C34.7444 32.672 34.8297 32.5174 34.8297 32.32C34.8297 32.1494 34.7817 32.0107 34.6857 31.904C34.5897 31.7974 34.4617 31.7067 34.3017 31.632C34.147 31.5574 33.9737 31.4907 33.7817 31.432C33.595 31.368 33.4057 31.296 33.2137 31.216C33.027 31.136 32.8537 31.0374 32.6937 30.92C32.539 30.7974 32.4137 30.6427 32.3177 30.456C32.2217 30.264 32.1737 30.024 32.1737 29.736C32.1737 29.3947 32.2564 29.104 32.4217 28.864C32.587 28.624 32.8137 28.44 33.1017 28.312C33.3897 28.184 33.715 28.12 34.0777 28.12C34.4617 28.12 34.8084 28.192 35.1177 28.336C35.427 28.48 35.6804 28.6667 35.8777 28.896L35.1577 29.616C34.9924 29.4347 34.8217 29.3014 34.6457 29.216C34.475 29.1307 34.2804 29.088 34.0617 29.088C33.811 29.088 33.6137 29.136 33.4697 29.232C33.3257 29.328 33.2537 29.4667 33.2537 29.648C33.2537 29.8027 33.3017 29.928 33.3977 30.024C33.4937 30.12 33.619 30.2027 33.7737 30.272C33.9337 30.3414 34.107 30.408 34.2937 30.472C34.4857 30.536 34.675 30.608 34.8617 30.688C35.0537 30.768 35.227 30.872 35.3817 31C35.5417 31.128 35.6697 31.2934 35.7657 31.496C35.8617 31.6934 35.9097 31.9387 35.9097 32.232C35.9097 32.7547 35.7257 33.1654 35.3577 33.464C34.9897 33.7627 34.4857 33.912 33.8457 33.912Z" fill="white"/>
</svg>
